<svg width="111" height="108" viewBox="0 0 111 108" fill="none" xmlns="http://www.w3.org/2000/svg">
<path opacity="0.5" d="M47.5442 92.9776C44.77 94.2906 42.0968 95.3993 38.7497 96.7492C38.6557 96.7872 38.5614 96.8252 38.4669 96.8632C38.465 96.8641 38.4632 96.8649 38.4613 96.8658C37.9525 97.0708 37.4466 97.2719 36.9012 97.4891C32.5579 99.1818 27.0069 101.472 18.1139 104.419C15.52 105.257 13.0071 105.963 10.4408 106.485C9.23544 106.722 7.25128 107.103 4.63652 105.827C1.99618 104.466 0.968938 102.119 0.620148 100.969C-0.0654509 98.4518 0.183925 97.4237 0.229221 96.3269C0.428989 94.2944 0.784064 92.8662 1.10228 91.5329C1.75838 88.9078 2.38126 86.8874 2.87416 85.249C3.11923 84.4297 3.3485 83.5592 3.69619 81.4477C3.87209 80.3304 4.08088 78.8847 4.17108 77.085C4.19259 76.605 4.21341 76.097 4.23343 75.5554C4.29087 74.0149 4.33856 72.2121 4.38684 70.0677C4.4481 67.6064 4.46044 64.6317 4.61943 61.2179C5.06112 54.2999 6.55013 47.3768 8.0707 40.6273C8.12103 40.4098 8.17146 40.1932 8.22196 39.9777C9.52068 34.3059 10.688 28.5829 11.9318 24.2091C12.0391 23.8251 12.1488 23.4414 12.2609 23.0584C13.7533 17.9093 15.4221 12.9952 16.3557 8.19342C16.7174 6.66274 16.8266 5.40717 18.679 3.15993C19.1053 2.70395 19.676 2.16742 20.6126 1.69675C24.0108 -0.018566 27.701 1.04444 29.6652 2.09523C31.7899 3.1943 33.3041 4.47132 34.7364 5.7511C37.4894 8.22065 40.1533 11.4136 42.1261 13.049C42.1745 13.0868 42.2147 13.1171 42.2445 13.1392C47.1577 16.658 51.3678 20.1944 55.9997 23.5052C56.1548 23.6169 56.3112 23.7289 56.4689 23.8413C56.9648 24.1892 57.452 24.5441 57.931 24.9038C61.801 27.8076 65.2154 31.0809 68.9512 34.0757C69.5105 34.5224 70.094 34.9638 70.6978 35.4016C74.7244 38.2947 78.7779 40.6281 82.5684 43.177C86.2807 45.6659 90.0615 47.8104 94.0528 50.2804C94.6691 50.6633 95.2897 51.0549 95.9144 51.4588C98.4343 53.0818 100.937 54.9129 103.505 56.8025C104.629 57.6261 105.845 58.5144 107.151 59.4018C107.465 59.6171 107.877 59.8597 108.433 60.2614C108.938 60.6877 109.901 61.1975 110.465 62.9773C110.78 64.0379 110.722 65.4958 110.241 66.5868C109.776 67.6907 109.131 68.4213 108.542 69.0141C107.351 70.1704 106.221 70.9023 105.122 71.6497C102.932 73.1028 100.843 74.451 98.9702 76.0324C98.4684 76.4544 97.9521 76.8784 97.419 77.2957C96.7617 77.8108 96.0798 78.3135 95.3916 78.7881C95.3881 78.7905 95.3846 78.793 95.3812 78.7954C87.9001 83.6849 80.5311 86.9989 75.1167 89.8607C70.2892 92.3295 67.1849 93.9438 64.8911 95.169L64.9163 95.1563C63.1841 96.1031 61.9956 96.8107 60.9152 97.481C59.9827 98.0583 59.1431 98.6121 58.0362 99.2911C57.3138 99.7337 56.4919 100.211 55.6164 100.689C51.6939 102.816 46.6553 105.179 41.5415 107.598C41.5177 107.61 41.4939 107.621 41.47 107.632C40.4336 108.121 39.4057 108.11 39.1725 107.609C38.9402 107.107 39.5904 106.304 40.6265 105.815C43.9334 104.254 47.1568 102.73 50.033 101.309C49.9709 100.81 50.5865 100.109 51.5139 99.6499C52.1221 99.348 53.0584 98.8568 54.2823 98.161C56.5187 96.9268 59.4765 94.8192 63.5858 92.5372C65.9066 91.2503 68.4858 89.8124 71.3381 88.2112C70.5496 88.5093 69.8508 88.7643 69.2782 88.9607C68.5929 89.1979 68.0337 89.3864 67.5777 89.5363C66.6446 89.8401 65.9661 90.0715 64.8947 90.5262C64.3472 90.7786 63.7217 91.0732 63.0228 91.4067C63.0209 91.4075 63.0155 91.4103 63.0137 91.4112C60.6468 92.534 57.5995 94.2634 54.6078 95.9591C54.1686 96.1989 53.7214 96.3352 53.337 96.3696C52.8639 96.4099 52.4897 96.2931 52.3505 96.0204C52.2148 95.7493 52.3366 95.3822 52.6266 95.0234C52.8701 94.7251 53.2257 94.4329 53.6589 94.1962C53.6779 94.1857 53.6968 94.1753 53.7156 94.1649C56.482 92.5943 59.6889 90.7726 62.1063 89.625C62.1114 89.6226 62.1265 89.6147 62.1317 89.6123C62.9346 89.2287 63.6508 88.8913 64.2724 88.6053C64.9292 88.3027 65.5218 88.0361 65.9458 87.8508C66.2921 87.6991 66.6985 87.5246 66.9608 87.4301C66.9945 87.4181 67.0588 87.3958 67.1366 87.3719C67.1379 87.3716 67.1393 87.3713 67.1406 87.3709C67.1841 87.3575 67.4057 87.2887 67.6579 87.2537C67.7089 87.2466 67.82 87.2321 67.9558 87.2305C67.9861 87.2205 68.0163 87.2105 68.0465 87.2005C68.4726 87.0585 68.8727 86.9307 69.3536 86.7603C71.1462 86.1334 74.0135 85.0616 79.6956 82.5178C83.6469 80.5901 90.0674 78.1055 96.3472 72.9254C98.3692 71.2241 100.716 69.7084 103.051 68.1567C102.354 68.5759 101.646 68.9907 100.935 69.4205C99.3127 70.3976 97.6775 71.454 96.1266 72.6641C95.9731 72.7832 95.822 72.8994 95.6707 73.0147C95.0521 73.4867 94.4423 73.9317 93.8091 74.3636C92.7885 75.0608 91.7263 75.7054 90.6376 76.3201C89.9014 76.736 89.1355 77.1493 88.3846 77.5416C88.3829 77.5426 88.3812 77.5436 88.3795 77.5445C87.323 78.0969 86.2528 78.6341 85.1585 79.1715C84.7873 79.352 84.3823 79.5499 84.0234 79.7224C82.5268 80.4451 81.0443 81.1466 79.3055 81.9046C79.0986 81.9885 78.8683 82.0776 78.6935 82.1429C78.506 82.2135 78.3228 82.2813 78.1472 82.3447C77.9942 82.3996 77.8357 82.4568 77.7044 82.5018C77.6862 82.5082 77.6679 82.5146 77.6497 82.521C77.497 82.5742 77.3501 82.6263 77.2079 82.6771C77.0661 82.7279 76.9283 82.7773 76.7925 82.8284C76.7914 82.829 76.7902 82.8296 76.789 82.8302C76.6472 82.8838 76.539 82.925 76.3882 82.9857C76.1951 83.0639 76.0437 83.1255 75.8561 83.2054C75.6749 83.2826 75.485 83.3657 75.2918 83.452C75.0986 83.5384 74.9005 83.6286 74.6976 83.722C74.4893 83.8182 74.2997 83.9054 74.099 83.9992C73.8998 84.0922 73.6962 84.1883 73.4894 84.2859C73.2824 84.3836 73.0709 84.4834 72.8564 84.5851C72.3745 84.8128 71.8825 84.9358 71.4579 84.9382C71.036 84.9393 70.732 84.813 70.6188 84.5813C70.5054 84.3497 70.5912 84.0295 70.8481 83.6926C71.1082 83.3544 71.5013 83.0363 71.9743 82.7877C72.1059 82.7187 72.2371 82.6494 72.368 82.5807C72.4457 82.54 72.524 82.4993 72.6016 82.4587C72.81 82.3494 73.0181 82.2398 73.2257 82.1318C73.4316 82.0247 73.643 81.9158 73.8663 81.8016C74.0873 81.6885 74.3089 81.5759 74.5316 81.4648C74.754 81.3539 74.9783 81.2438 75.2058 81.1349C75.4409 81.0218 75.7065 80.8976 75.942 80.7913C76.1142 80.7132 76.3257 80.6218 76.5005 80.5473C76.6811 80.4705 76.865 80.3938 77.0481 80.3181C77.2298 80.2432 77.4041 80.173 77.5688 80.1065C77.5863 80.0994 77.6039 80.0922 77.6214 80.085C77.7667 80.0264 77.9057 79.9706 78.0356 79.9176C78.1803 79.8586 78.3167 79.8016 78.4543 79.742C78.6033 79.6779 78.6917 79.6373 78.7996 79.5872C80.1918 78.906 81.8934 78.0135 83.4932 77.1494C83.6962 77.0398 83.8938 76.9329 84.0849 76.829C85.1351 76.2565 86.1612 75.684 87.1625 75.1027C87.8883 74.6811 88.598 74.2565 89.2917 73.8213C90.3077 73.1841 91.2651 72.5363 92.1731 71.8482C92.7412 71.4186 93.2904 70.9751 93.8678 70.4911C93.9497 70.4225 94.0323 70.353 94.1158 70.2823C95.8415 68.8213 97.6569 67.5613 99.3772 66.4328C101.121 65.305 103.123 63.9711 103.441 63.5586C103.496 63.507 103.402 63.6013 103.315 63.9302C103.221 64.2522 103.258 64.729 103.327 64.8971C103.521 65.5845 103.853 65.9682 103.988 66.1083C104.136 66.2557 104.149 66.237 104.083 66.182C103.945 66.0578 103.535 65.7832 103.023 65.4134C102.838 65.2777 102.656 65.1419 102.476 65.0058C101.153 64.0067 99.8929 62.9309 98.7658 61.9457C98.1603 61.4161 97.5762 60.8998 97.0051 60.3974C97.0032 60.3956 97.0013 60.3938 96.9994 60.392C96.4979 59.9508 96.0048 59.5197 95.5144 59.0995C94.4923 58.2229 93.479 57.3915 92.4424 56.5974C92.4127 56.5747 92.3829 56.5519 92.3531 56.5292C91.2812 55.7111 90.1768 54.9208 89.0395 54.14C87.9105 53.3652 86.7376 52.5914 85.5629 51.828C84.3822 51.0606 83.2107 50.3103 81.9767 49.5125C81.1255 48.9628 80.2776 48.4114 79.4254 47.8475C78.695 47.3647 77.9488 46.8895 77.1836 46.414C75.5864 45.4218 73.933 44.4495 72.2523 43.4553C71.6646 43.1077 71.0734 42.7561 70.4791 42.3996C70.4768 42.3982 70.4746 42.3968 70.4723 42.3954C69.3727 41.7356 68.2632 41.0571 67.153 40.3381C66.5476 39.946 65.9418 39.5416 65.3374 39.1198C64.2577 38.3663 63.2123 37.6018 62.1812 36.8406C60.5881 35.6638 59.0247 34.4912 57.4568 33.3651C55.8975 32.2444 54.3003 31.1454 52.6866 30.1388C52.6774 30.1331 52.6683 30.1274 52.6592 30.1218C51.064 29.1308 49.4831 28.0911 47.9614 27.0507C47.5613 26.7772 47.159 26.4995 46.7608 26.2222C44.868 24.905 43.0673 23.6027 41.2958 22.3433C40.0736 21.4743 38.853 20.6159 37.6343 19.7958C36.846 19.2544 36.2625 18.7409 35.7034 18.2441C33.9329 16.639 32.4222 15.0826 30.8449 13.6584C29.2835 12.2429 27.6784 10.9367 26.2238 10.2048C25.6512 9.91513 25.1192 9.75506 24.8396 9.74925C24.5378 9.74675 24.6428 9.82598 24.6737 9.84728C25.1804 9.5977 25.3708 9.37847 25.482 9.27105C25.589 9.15827 25.6128 9.12484 25.6231 9.12992C25.6374 9.15551 25.5451 9.48575 25.5325 9.76152C25.4421 10.4549 25.3363 11.1396 25.2231 11.7975C24.9909 13.1476 24.7174 14.4568 24.4291 15.7278C24.312 16.2438 24.192 16.7539 24.0714 17.2569C23.8955 17.991 23.7168 18.7127 23.5407 19.4189C23.2437 20.6097 22.9524 21.7627 22.6805 22.8757C22.4295 23.9025 22.1957 24.8946 21.9843 25.859C21.9672 25.938 21.9504 26.017 21.9337 26.0959C21.7156 27.1329 21.5613 27.9997 21.4029 29.0484C20.9692 31.592 20.6753 33.1861 20.3435 34.9678C20.2786 35.3194 20.2131 35.6793 20.1451 36.0554C19.7498 38.1828 19.3429 40.3334 18.8738 42.5078C18.8692 42.5292 18.8646 42.5507 18.86 42.5722C18.4109 44.6629 17.9831 46.7235 17.5722 48.8051C17.166 50.8659 16.7774 52.9383 16.4371 54.9771C16.0994 57.0096 15.7995 59.0362 15.6301 60.9109C15.6054 61.1887 15.5841 61.4595 15.5671 61.7192C15.4579 63.4566 15.3888 65.2739 15.3243 67.0585C15.2808 68.2681 15.2318 69.5683 15.1797 70.7858C15.1423 71.6649 15.102 72.5344 15.0592 73.3918C15.0417 73.742 15.0237 74.0906 15.0054 74.4359C14.952 75.4471 14.8957 76.4359 14.8388 77.4025C14.828 77.5958 14.816 77.7879 14.8029 77.9787C14.7167 79.2317 14.5888 80.4057 14.4511 81.5305C14.3125 82.6584 14.1628 83.7392 14.0119 84.8069C13.8553 85.913 13.7238 86.8177 13.5641 87.9638C13.4609 88.7067 13.3571 89.431 13.2555 90.1412C13.1031 91.2065 12.9552 92.2445 12.829 93.2528C12.704 94.2564 12.601 95.2233 12.5624 96.0697C12.5498 96.3432 12.545 96.6093 12.5501 96.8318C12.556 97.1722 12.595 97.4601 12.6302 97.473C12.6439 97.4745 12.6622 97.4003 12.6018 97.135C12.531 96.8751 12.405 96.3667 11.7964 95.6249C11.1956 94.8471 9.89511 94.1359 9.01057 94.0166C8.60108 93.9411 8.25229 93.9342 8.00374 93.9447C7.77636 93.9535 7.60536 93.9771 7.48342 93.9966C7.8856 93.8681 8.29469 93.73 8.71152 93.5833C9.58572 93.2748 10.4642 92.9383 11.3582 92.5744C12.8803 91.9543 14.3685 91.3742 15.6792 90.8578C16.9999 90.3381 18.2473 89.8425 19.4581 89.3479C19.6896 89.2534 19.9106 89.1624 20.1377 89.0686C21.1156 88.6651 22.0772 88.2594 23.0186 87.8506C24.1797 87.3465 25.3287 86.8304 26.4597 86.3062C27.5825 85.786 28.7322 85.2377 29.8364 84.6931C30.7696 84.2331 31.658 83.7847 32.6003 83.2985C32.7884 83.2011 32.9818 83.1009 33.181 82.9974C34.3267 82.4021 35.4836 81.7759 36.7519 81.0862C38.0085 80.4026 39.3278 79.6831 40.6681 78.9628C42.0067 78.2429 43.3716 77.519 44.7287 76.8115C46.0883 76.1025 47.4575 75.4001 48.8103 74.7153C50.1704 74.0267 51.5241 73.3508 52.8718 72.6833C54.2172 72.0169 55.6075 71.3339 56.9066 70.6988C59.0042 69.6731 61.0902 68.6463 63.1423 67.6074C64.0442 67.1506 64.9328 66.6948 65.7979 66.24C66.8989 65.6607 67.9639 65.0824 68.9431 64.5115C69.6863 64.0797 70.4187 63.6175 70.8088 63.3343C70.9014 63.2681 70.9644 63.2185 70.9606 63.2258C70.9543 63.2403 70.8881 63.2816 70.6181 63.6129C70.4251 64.0159 69.5631 64.4088 69.2275 67.4448C69.0974 68.9537 69.7659 70.9277 70.4716 71.8641C71.1689 72.8529 71.6545 73.1748 71.836 73.33C71.8348 73.3233 71.7459 73.2523 71.6105 73.159C70.3907 72.3391 67.8581 70.9429 65.7728 69.6003C65.2957 69.2973 64.8164 68.9867 64.3454 68.675C63.8355 68.3376 63.3284 67.9946 62.8238 67.6457C61.7472 66.9001 60.6906 66.155 59.6517 65.4197C59.6414 65.4122 59.6312 65.4048 59.621 65.3974C57.6921 64.0321 55.8325 62.7054 53.9673 61.4091C53.2827 60.9336 52.6272 60.4824 51.9631 60.0329C51.2983 59.5831 50.648 59.1504 49.9957 58.727C49.3428 58.3032 48.6973 57.8954 48.069 57.5138C47.9724 57.4552 47.8771 57.3977 47.783 57.3413C47.2293 57.0096 46.6723 56.6843 46.1018 56.3586C45.4849 56.0061 44.8635 55.6607 44.1759 55.2805C44.1131 55.2457 44.0501 55.2109 43.9874 55.1763C43.2342 54.7604 42.3701 54.2798 41.5654 53.8181C39.4346 52.5932 37.3124 51.383 35.1189 50.0724C35.0457 50.0286 34.9726 49.9848 34.8995 49.941C31.6813 47.8895 30.1778 46.3107 28.4362 44.9349C27.7824 44.3998 27.1429 43.91 26.7536 43.6592C26.6198 43.5716 26.5229 43.5199 26.5444 43.5341C26.5765 43.5443 26.6873 43.6451 27.3304 43.8126C27.8766 43.9289 29.679 44.3527 31.9553 43.0396C34.1566 41.6517 34.5809 40.0272 34.762 39.4978C34.7298 39.6128 34.6971 39.7305 34.6654 39.8464C34.0811 41.976 33.6309 44.0505 33.3885 46.0167C33.2049 47.4998 33.1463 48.9155 33.2357 50.1378C33.2921 50.8487 33.33 51.538 33.3571 52.203C33.4623 54.9704 33.4325 57.3028 33.5724 59.4139C33.6381 60.4612 33.7379 61.4647 33.882 62.4555C34.0674 63.7326 34.3535 65.1701 34.644 66.7906C35.1806 69.6939 35.5921 73.164 35.4557 76.4877C35.4532 76.5595 35.4505 76.6314 35.4476 76.7035C35.4363 76.8594 35.4407 76.8603 35.4143 76.6451C35.3776 76.4306 35.3447 75.961 34.9484 75.1102C34.5877 74.2764 33.5552 73.0765 32.4854 72.5497C31.4251 71.9974 30.6539 71.9481 30.2378 71.9301C29.4096 71.9352 29.443 72.0349 29.5243 72.0085C29.6304 71.9937 29.8847 71.92 30.174 71.8128C30.8411 71.5543 31.5001 71.2979 32.1627 71.0388C34.6959 70.0478 37.212 69.046 39.7059 68.0184C41.1952 67.4045 42.6738 66.783 44.1306 66.1476C44.8627 65.7471 45.5665 65.3537 46.2203 64.9785C47.3091 64.3536 48.2939 63.7615 49.1149 63.2139C49.515 62.9466 49.8799 62.6819 50.0616 62.5169C50.145 62.4435 50.1943 62.3693 50 62.5255C49.9023 62.6153 49.7241 62.7405 49.3296 63.2799C49.2178 63.4379 49.0926 63.6309 48.96 63.8767C48.893 64.0015 48.8284 64.13 48.7558 64.2937C48.669 64.4902 48.5824 64.7134 48.5034 64.9683C48.3464 65.4978 48.2152 66.0496 48.2178 66.9476C48.2227 67.8493 48.4566 68.9045 48.9122 69.7992C49.5084 70.9542 50.0626 71.4024 50.3711 71.6847C50.6926 71.9567 50.8514 72.0514 50.9401 72.1134C51.1084 72.2232 51.012 72.1777 50.8452 72.1156C50.4905 71.9734 49.827 71.7249 48.9395 71.2543C47.6566 70.6163 46.2331 70.0094 44.5118 69.3195C44.0335 69.1372 43.6295 69.0014 43.1278 68.8324C43.0321 68.8001 42.9302 68.7652 42.8256 68.7298C42.1626 68.5046 41.3895 68.24 40.2768 67.7898C39.3419 67.4092 38.1695 66.9012 36.7706 66.157C35.228 65.3274 33.3709 64.2778 31.3229 63.0738C30.432 62.5509 30.0563 61.8249 30.4611 61.4069C30.7496 61.1165 31.359 61.0658 32.0229 61.2563C30.902 60.6931 29.7614 60.1465 28.7782 59.741C28.3912 59.5806 28.1098 59.3749 28.0419 59.1592C27.9673 58.9438 28.1377 58.714 28.1374 58.4533C28.1375 58.1971 28.1335 57.9404 28.4306 57.8288C28.7121 57.7149 29.1737 57.755 29.6171 57.9156C30.8109 58.3485 32.0691 58.8955 33.3134 59.4593C34.5595 60.0257 35.8022 60.6197 37.0408 61.2316C37.6381 61.5269 38.2339 61.8262 38.8275 62.1293C39.5224 62.4842 40.219 62.8168 40.9136 63.1343C42.2505 63.7452 43.5772 64.3 44.8716 64.8473C46.1743 65.398 47.4193 65.9302 48.6349 66.5066C49.3636 66.8518 50.0824 67.2143 50.7677 67.5884C50.8283 67.6215 50.8885 67.6546 50.9483 67.6876C51.2384 67.8488 51.5059 67.9794 51.7542 68.0957C52.0197 68.2198 52.2663 68.3284 52.4832 68.4262C52.7041 68.5249 52.8955 68.6172 52.9693 68.6587C53.0042 68.6768 53.0073 68.6845 52.9352 68.6258C52.8681 68.5618 52.6877 68.4391 52.4633 68.0114C52.2891 67.6701 52.1961 67.2672 52.1894 66.9225C52.1841 66.5677 52.2308 66.3659 52.286 66.1651C52.4154 65.7574 52.4963 65.6733 52.5666 65.5579C52.6901 65.3846 52.7038 65.3935 52.6906 65.4036C52.654 65.4427 52.5114 65.5617 52.3476 65.6801C52.0165 65.9211 51.6011 66.1844 51.165 66.4449C50.302 66.9595 49.3547 67.4694 48.4081 67.9609C46.0392 69.1862 43.5741 70.352 41.1029 71.4923C38.6265 72.6329 36.1304 73.7465 33.6261 74.844C33.0127 75.1127 32.4063 75.3772 31.7902 75.6448C31.0562 75.985 30.1295 76.2256 30.0549 76.2024C30.0563 76.2078 30.1856 76.2023 30.4402 76.3384C30.6974 76.4663 30.9655 76.7919 31.0282 76.9599C31.148 77.3058 31.0334 77.0411 31.0552 76.6277C31.056 76.5141 31.0562 76.4013 31.0559 76.289C31.0614 73.336 30.6029 70.355 29.9928 67.6184C29.6664 66.1197 29.323 64.6934 29.0582 63.305C28.9488 62.7329 28.8525 62.1575 28.7685 61.578C28.6162 60.8055 28.4903 60.0329 28.3836 59.2603C28.0691 57.0137 27.8769 54.671 27.5702 52.2919C27.8471 56.5322 28.0169 59.7198 28.6396 62.6748C28.6858 62.9032 28.7335 63.127 28.7836 63.3534C28.8208 63.5215 28.8588 63.6885 28.8977 63.8568C29.7336 67.4694 31.0379 71.3998 30.9372 76.6256C30.9064 77.0457 31.029 77.344 30.8852 76.9846C30.823 76.8588 30.6603 76.6556 30.4777 76.5374C30.2955 76.4149 30.1447 76.3795 30.0874 76.3699C29.9703 76.3584 30.1274 76.3792 30.3216 76.3404C30.7321 76.2707 31.3116 76.0747 31.8731 75.8415C37.4759 73.518 42.0137 71.5521 45.7039 69.8436C47.5361 68.9939 49.1753 68.1998 50.5626 67.4634C51.2552 67.095 51.8971 66.7345 52.4329 66.3932C52.694 66.2273 52.939 66.0555 53.0836 65.9379C53.1575 65.8801 53.2035 65.8271 53.1585 65.8864C53.1368 65.9212 53.0758 65.9858 52.9844 66.2157C52.935 66.3463 52.8828 66.5292 52.8722 66.7697C52.857 67.0493 52.9219 67.4082 53.075 67.7034C53.3597 68.1798 53.4265 68.0957 53.3689 68.0775C53.3155 68.0375 53.182 67.9609 53.0314 67.8838C52.5587 67.6415 51.9412 67.3713 51.3305 67.0091C47.656 64.8644 45.6239 63.9737 43.8878 62.8273C42.816 62.1412 41.3048 61.3033 39.7353 60.3519C37.2934 58.8593 34.5221 57.4346 32.7487 56.6856C31.7083 56.2403 31.0112 55.5021 31.2053 54.9848C31.3957 54.465 32.4671 54.386 33.5451 54.8477C35.3403 55.6075 38.0808 56.9978 40.656 58.5491C42.5122 59.6708 44.4429 60.7048 45.8568 61.6076C47.13 62.4542 48.7047 63.1591 52.3147 65.2616C52.8315 65.576 53.4376 65.8356 54.0593 66.1606C54.3622 66.3275 54.7163 66.5168 54.8646 66.8024C51.5599 70.0416 43.8236 72.8935 32.6516 77.6873C32.0071 77.9523 31.3429 78.1931 30.6659 78.3138C29.997 78.4355 29.2962 78.3862 29.0952 77.883C28.9347 77.5423 28.9262 77.0618 28.9344 76.591C29.0245 71.8615 27.8933 68.2978 27.0044 64.5799C26.9357 64.2893 26.8684 63.9973 26.8035 63.7021C26.7777 63.5849 26.7526 63.4679 26.728 63.3511C26.7276 63.3485 26.7272 63.3459 26.7267 63.3433C25.9325 59.8225 25.8633 55.8535 25.427 50.824C25.3826 50.3994 25.3506 49.965 25.3311 49.5219C25.1575 45.6082 25.91 41.3406 26.9955 37.282C27.0996 36.9085 27.2696 36.4928 27.6797 36.1796C28.0944 35.8636 28.6239 35.8322 29.0127 35.8941C29.7968 36.0273 30.3835 36.3687 30.9449 36.6963C32.0559 37.3741 33.0211 38.1447 33.9578 38.8897C35.8185 40.3756 37.5402 41.8796 39.1721 42.8271C42.7571 44.8575 45.6396 46.3411 46.9838 47.0304C47.7235 47.4052 48.4431 47.764 49.2004 48.146C50.1407 48.6208 51.1448 49.1313 52.3295 49.7715C54.8263 51.121 58.0351 53.0941 63.0005 56.4117C64.4961 57.4071 66.2146 58.5772 68.0854 59.8268C68.2233 59.9188 68.3606 60.0098 68.4972 60.0999C71.6951 61.9532 74.7043 63.1096 77.8393 65.0251C77.9434 65.0949 78.0532 65.1712 78.1593 65.2477C78.3974 65.4368 78.8194 65.7235 79.2062 66.4637C79.6142 67.2116 79.5771 68.2746 79.3818 68.8131C78.9878 69.9226 78.5884 70.2393 78.2795 70.6212C77.6411 71.315 77.1158 71.7474 76.5785 72.1952C75.5251 73.0576 74.5258 73.7921 73.5501 74.5023C72.9546 74.9324 72.3774 75.3446 71.7788 75.7614C71.5837 75.8983 71.3829 76.0374 71.1765 76.1787C69.9576 77.0197 68.7317 77.8351 67.5205 78.5981C66.397 79.3055 65.2262 80.0541 63.988 80.8383C59.4852 83.6884 54.0589 87.0415 46.5903 90.5769C43.5022 92.037 40.5669 93.3876 37.7818 94.6321C33.3767 96.5996 29.3254 98.2659 25.5619 99.6968C30.1031 98.0162 33.5633 96.6532 36.4391 95.511C36.9492 95.3078 37.4339 95.1138 37.9134 94.9201C37.9417 94.9087 37.9699 94.8974 37.9982 94.886C41.494 93.4752 44.0226 92.4289 46.6671 91.1777C59.2893 85.173 63.9029 82.6564 69.0062 79.4839C69.9249 78.9078 70.8956 78.2762 71.9344 77.5791C72.4252 77.251 72.9132 76.9178 73.4108 76.5716C74.5298 75.7935 75.683 74.9742 76.951 73.977C77.5877 73.4675 78.2377 72.9522 79.0505 72.1415C79.4616 71.687 79.9285 71.3406 80.6117 70.0214C80.9224 69.3858 81.4131 67.9605 80.8696 66.3609C80.31 64.8264 79.4608 64.2917 79.1243 64.0142C77.5206 62.93 76.3199 62.44 75.0839 61.7981C73.077 60.7938 71.0521 59.7612 68.9471 58.5463C67.0963 57.4763 65.1643 56.3313 63.1686 55.1541C63.167 55.153 63.1653 55.1519 63.1637 55.1507C62.3204 54.6532 61.4649 54.1494 60.5987 53.6425C58.0519 52.1555 55.4245 50.6308 52.6765 49.1938C49.7468 47.6735 46.8017 46.2525 43.9465 44.7838C43.3571 44.481 42.6495 44.1221 41.8411 43.7064C41.1102 43.3303 40.2953 42.9068 39.4101 42.4307C37.9906 41.6681 36.3366 40.3268 34.4832 38.8624C33.5447 38.1265 32.5675 37.3414 31.4036 36.5914C30.8081 36.224 30.202 35.8387 29.3209 35.6107C28.8928 35.5118 28.2654 35.435 27.6433 35.7913C27.0278 36.1569 26.783 36.7359 26.6542 37.1846C25.8909 39.9298 25.1631 42.9259 24.7933 46.1897C24.6286 47.6822 24.525 49.2311 24.5912 50.8974C24.6312 51.9769 24.6221 53.1095 24.5998 54.3201C24.5837 55.2125 24.5604 56.1472 24.5529 57.1348C24.5383 59.1595 24.5846 61.4477 24.9395 64.0304C25.3202 66.87 26.0581 69.8426 26.3017 73.1633C26.3819 74.2466 26.4106 75.3751 26.371 76.5467C26.3746 77.0779 26.2789 77.763 26.7059 78.8606C26.9221 79.3994 27.41 80.0501 28.0326 80.42C28.6532 80.799 29.2484 80.9097 29.7241 80.9484C31.5792 81.0017 32.5577 80.5 33.6648 80.0896C36.6324 78.874 39.7395 77.569 42.9031 76.1831C46.1279 74.7618 49.3917 73.3055 52.618 71.6101C53.3371 71.2269 54.0492 70.8339 54.7834 70.3724C55.1593 70.1333 55.5227 69.8952 55.9517 69.5524C56.0556 69.4685 56.1637 69.3779 56.2887 69.2629C56.4076 69.1527 56.5299 69.0348 56.6843 68.8564C56.817 68.6999 57.0177 68.4552 57.2002 68.073C57.2982 67.8674 57.4225 67.5355 57.4634 67.1481C57.5164 66.754 57.4472 66.1168 57.191 65.6311C56.5465 64.5002 56.0248 64.3442 55.6723 64.0895C55.3076 63.8728 55.0257 63.7405 54.7692 63.6169C54.2628 63.3774 53.8637 63.1927 53.5763 63.0215C49.3118 60.5569 45.0092 59.0778 41.3834 57.1247C38.7053 55.7059 36.0453 54.3641 33.2004 53.1482C33.1984 53.1474 33.1965 53.1467 33.1945 53.1459C32.0909 52.6745 31.2759 51.9128 31.4837 51.4005C31.7083 50.8907 32.9427 50.8554 34.0875 51.3475C36.979 52.5899 39.6211 53.9239 42.2949 55.3398C45.7339 57.2063 50.0714 58.6934 54.5594 61.276C54.7246 61.3796 55.069 61.5444 55.6098 61.7986C55.8865 61.9323 56.2089 62.0801 56.6895 62.3638C57.1512 62.7154 57.9119 62.8748 58.9801 64.7304C59.4348 65.5877 59.548 66.7256 59.4513 67.3951C59.3768 68.0652 59.1535 68.6364 58.9986 68.9554C58.689 69.5899 58.3865 69.9452 58.1873 70.1804C57.9556 70.4457 57.7949 70.598 57.6311 70.7495C57.4597 70.9062 57.329 71.0148 57.1949 71.1228C56.662 71.5469 56.2446 71.8168 55.8291 72.0807C55.012 72.5926 54.2582 73.0061 53.5011 73.4087C50.2204 75.1285 46.9734 76.5774 43.7367 78.0045C40.5598 79.3966 37.4329 80.7102 34.4432 81.9352C33.1962 82.3761 32.2162 82.9993 29.5874 82.947C28.9039 82.8923 27.9899 82.7362 26.9941 82.1331C25.994 81.5455 25.1994 80.4853 24.8675 79.6568C24.2134 77.9674 24.3861 77.1023 24.3677 76.5121C24.4076 75.3662 24.3777 74.2683 24.2955 73.2089C24.0669 70.1786 23.3654 67.306 22.961 64.3788C22.5552 61.4768 22.523 58.9411 22.545 56.7765C22.5564 55.7233 22.5811 54.7598 22.595 53.8681C22.6113 52.8552 22.6141 51.9337 22.5859 51.0736C22.5054 49.1371 22.6339 47.4267 22.8223 45.7851C23.2221 42.4149 23.9649 39.3859 24.7291 36.6354C24.931 35.9517 25.349 34.8248 26.6537 34.0508C27.9804 33.3111 29.1572 33.5203 29.8113 33.669C31.1677 34.0362 31.8264 34.5076 32.5178 34.9259C33.8293 35.7765 34.8241 36.5833 35.7811 37.3317C37.6455 38.8088 39.3062 40.123 40.4466 40.7051C41.1562 41.0855 41.8223 41.433 42.4359 41.7501C43.2576 42.1744 43.9858 42.545 44.6055 42.8639C47.5472 44.3799 50.6116 45.8509 53.7163 47.4623C56.3306 48.8317 58.8003 50.2574 61.2088 51.6604C62.071 52.1637 62.9235 52.6653 63.766 53.162C63.7678 53.1628 63.7696 53.1637 63.7714 53.1645C65.9511 54.4492 68.0666 55.7061 70.0764 56.8682C71.9849 57.9663 73.8222 58.9129 75.6738 59.842C77.0717 60.5759 78.342 61.0414 80.3739 62.417C80.7665 62.7384 81.6009 63.2783 82.4298 64.8452C83.3083 66.4254 83.2486 68.7672 82.8427 69.8707C82.0269 72.1555 81.3521 72.555 80.8921 73.1528C79.9531 74.1622 79.3411 74.6457 78.7196 75.1658C77.5182 76.1456 76.4704 76.9041 75.4595 77.6263C74.5883 78.2449 73.7457 78.8217 72.9082 79.3785C72.1259 79.9006 71.3389 80.4093 70.5665 80.8959C65.1085 84.3024 60.2329 86.94 47.5442 92.9776ZM33.7707 62.1558C35.2404 63.0201 36.5549 63.7614 37.6821 64.3721C38.4107 64.7634 39.071 65.0809 39.6567 65.3455C39.0141 65.0188 38.3647 64.676 37.7129 64.3118C37.0829 63.9546 36.4492 63.6013 35.8135 63.2532C35.1334 62.8807 34.4516 62.5141 33.7707 62.1558ZM67.6737 61.9542C67.4265 61.816 67.1843 61.6795 66.9349 61.5366C66.7897 61.4537 66.6434 61.3699 66.496 61.2852C66.6374 61.3782 66.778 61.4705 66.9177 61.562C67.8252 62.1567 68.7369 62.7292 69.6629 63.2862C70.9733 64.0762 72.3079 64.8244 73.6417 65.5672C71.5364 64.364 69.5043 63.1571 67.6737 61.9542ZM45.7179 88.7738C52.7497 85.4448 57.7206 82.3796 62.1818 79.5686C63.4646 78.7591 64.7065 77.9689 65.9413 77.1944C66.46 76.8698 66.9588 76.5475 67.4741 76.2102C64.3211 77.8098 61.4108 79.2168 59.0232 80.3629C51.8959 83.7708 47.7559 85.53 44.127 87.0782C43.069 87.5283 42.0691 87.9513 41.0318 88.3942C40.2188 88.8477 39.3752 89.3133 38.5165 89.7748C37.7609 90.1823 36.9343 90.6193 36.1377 91.036C35.6693 91.28 35.213 91.5159 34.7596 91.7475C33.5022 92.3898 32.2112 93.0291 30.9419 93.6366C29.663 94.2489 28.3802 94.8419 27.097 95.4154C25.8892 95.9555 24.6798 96.4781 23.5036 96.9731C23.4358 97.0017 23.3681 97.0301 23.3007 97.0583C22.0562 97.5809 20.8382 98.076 19.7169 98.5319C18.5755 98.9964 17.624 99.3843 16.7857 99.7503C15.7356 100.208 14.6503 100.657 13.5585 101.079C12.4602 101.502 11.3585 101.898 10.2242 102.259C9.98375 102.336 9.73234 102.414 9.49365 102.485C8.74019 102.682 7.42313 102.917 6.01336 102.028C4.65553 101.099 4.33345 99.9309 4.12802 99.2067C3.96688 98.5619 3.91545 98.0207 3.88381 97.5527C3.86989 97.3268 3.86231 97.1149 3.8587 96.9129C3.86348 97.7917 3.76787 98.687 4.34144 100.21C4.63257 100.967 5.44226 102.118 6.70706 102.593C7.97261 103.058 8.8452 102.89 9.5546 102.743C10.4324 102.54 11.3197 102.308 12.1903 102.066C15.6046 101.11 19.1294 99.9385 22.9634 98.5302C27.2122 96.9648 31.8154 95.1035 36.9493 92.8111C39.6999 91.582 42.618 90.2393 45.7179 88.7738ZM6.70344 63.8101C6.6842 64.7863 6.6772 66.2078 6.68286 68.021C6.68403 68.4505 6.68632 68.9004 6.68802 69.3732C6.68859 69.3621 6.68868 69.3506 6.68925 69.3395C6.74899 68.1698 6.80145 67.0849 6.85872 65.9078C6.93346 64.3734 7.01441 62.8597 7.12698 61.3327C7.17004 60.7397 7.22663 60.1593 7.2917 59.5818C7.53702 57.4337 7.88088 55.3719 8.25491 53.3178C8.63177 51.2607 9.04534 49.2224 9.47501 47.2066C9.90905 45.1717 10.3576 43.1753 10.8232 41.1621C10.8647 40.9829 10.9062 40.8039 10.9478 40.6252C11.0521 40.1764 11.1548 39.7226 11.2557 39.2676C11.1371 39.7123 11.0171 40.1613 10.8949 40.6126C10.6263 41.6079 10.3595 42.6356 10.0904 43.705C9.77504 44.9583 9.45606 46.2696 9.13063 47.653C9.00602 48.183 8.85216 48.8229 8.67775 49.5732C8.10881 52.1679 7.13871 55.9176 6.78659 61.3171C6.74684 62.1239 6.71975 62.9571 6.70344 63.8101ZM14.5886 23.1333C14.7087 22.6702 14.8287 22.2142 14.9499 21.762C15.2945 20.4774 15.6409 19.2359 15.9754 18.0243C16.21 17.1752 16.4406 16.3362 16.6587 15.5156C16.751 15.1683 16.8414 14.8223 16.9291 14.481C17.0764 13.9085 17.217 13.341 17.35 12.7799C16.4057 16.3388 15.2742 19.8844 14.1848 23.6126C14.0731 23.9938 13.9636 24.3769 13.8562 24.7613C13.8406 24.8172 13.8255 24.8735 13.8098 24.93C13.9914 24.4999 14.1732 24.0765 14.3549 23.6615C14.4335 23.4833 14.5114 23.3072 14.5886 23.1333Z" fill="#5390c7" fill-opacity="0.26"/>
</svg>
