<svg width="116" height="108" viewBox="0 0 116 108" fill="none" xmlns="http://www.w3.org/2000/svg">
<path opacity="0.5" d="M15.8458 50.828C15.849 46.5 15.9775 42.4696 16.125 37.3443C16.1249 37.3416 16.1249 37.3389 16.1249 37.3362C16.1459 36.6051 16.1675 35.8362 16.1889 35.0707C16.2004 34.6489 16.2119 34.2122 16.2234 33.759C16.2623 32.1898 16.3295 30.4883 16.5518 28.488C16.6659 27.4873 16.8236 26.3928 17.0861 25.1968C17.3267 24.0414 17.8054 22.5613 17.9607 22.09C18.5131 18.9415 22.5538 15.3017 25.1487 14.8207C27.785 14.0592 29.5921 14.1568 31.2537 14.2008C34.5417 14.37 37.3241 14.8521 40.3061 15.2178C42.6271 15.5129 44.7603 15.7483 46.7626 15.8797C56.7534 16.4345 65.2239 16.8708 70.6728 17.4792C71.9198 17.6136 73.2007 17.6922 76.483 17.8741C78.6451 18.0108 81.5144 18.1215 85.9293 18.6395C86.1006 18.6608 86.2723 18.6828 86.444 18.7055C88.7723 19.0968 91.1217 19.1446 95.2032 20.9928C96.2163 21.5545 97.6652 22.237 99.0306 24.4185C100.501 26.6909 99.988 29.8136 99.8407 30.3418C98.9651 34.919 98.0173 40.0124 97.6084 45.4252C96.7751 52.2782 96.3103 57.9606 96.2105 64.4436C96.1818 65.8402 96.1635 67.2293 96.1526 68.6215C96.1667 74.9892 97.1255 81.5566 97.6997 86.7039C97.9972 89.2489 98.2909 91.8025 98.5199 94.4194C98.638 96.8013 98.8948 98.4631 97.9455 101.961C97.5911 103.019 96.905 104.543 95.2996 105.773C93.6874 107.017 91.7746 107.273 90.6893 107.259C85.7559 107.169 81.8676 105.856 78.0089 104.62C75.2096 103.695 72.4593 102.669 69.8495 101.898C65.135 100.501 59.6137 99.7963 53.4509 99.1998C52.5416 99.1133 51.7049 99.0354 50.779 98.9525C42.4308 98.143 35.0204 97.573 26.1034 96.6031C25.3985 96.4905 24.6673 96.3446 23.9511 96.1624C23.5072 96.0467 23.0636 95.9272 22.6208 95.8038C18.9895 94.7991 15.4326 93.5037 11.9203 92.1075C10.7199 91.6196 9.42486 91.2251 8.00149 90.844C7.28694 90.6504 6.54507 90.4641 5.71231 90.2181C4.86272 89.9141 4.00148 89.8494 2.50255 88.6576C1.33244 87.6515 0.488034 85.9673 0.34839 84.487C0.688522 76.1324 5.21146 72.5526 5.66166 68.3404C6.58738 61.1341 6.61659 54.0473 7.03092 46.5137C7.30942 41.5237 7.65515 36.2931 8.74153 30.5819C8.74614 30.5581 8.75078 30.5342 8.75543 30.5104C9.57103 26.5466 10.3712 21.6231 12.4796 16.3069C13.6693 13.5735 13.5626 10.7296 14.8526 6.2016C15.2522 4.96907 16.322 3.83491 17.2756 3.31026C18.2393 2.75354 19.0786 2.53509 19.8226 2.36143C22.0155 1.86878 24.2238 1.75134 26.3441 1.83058C27.5293 1.87493 28.6928 1.9797 29.8318 2.12039C29.8375 2.12109 29.8433 2.1218 29.8491 2.1225C35.1166 2.78726 39.9511 4.14323 44.2864 4.58409C50.1999 5.08265 56.0596 5.14789 60.7632 5.17814C70.3479 5.19266 75.5749 4.82176 79.2277 4.46211C80.6318 4.31992 81.8041 4.17735 82.9209 4.02925C84.4417 3.82624 85.8406 3.61692 87.5065 3.3501C90.1579 2.93145 93.3838 2.32601 97.065 1.61125C97.1717 1.58862 97.4917 1.55818 97.6005 1.55216C100.971 1.42259 104.685 1.25098 108.158 0.699533C108.214 0.688967 108.382 0.670381 108.438 0.664333C110.066 0.536885 111.526 0.528357 113.002 0.516718C113.039 0.516425 113.076 0.516143 113.114 0.515872C114.731 0.509576 116.006 0.965925 116 1.51791C115.992 2.07186 114.701 2.51255 113.101 2.51901C111.612 2.52939 110.137 2.5399 108.608 2.65997C108.584 2.66256 108.512 2.67051 108.488 2.67503C105.146 3.2071 101.767 3.38064 98.6665 3.51564C98.5584 3.76274 98.2028 3.98939 97.6864 4.15592C97.6585 4.15747 97.5763 4.16528 97.5489 4.17109C97.0827 4.40472 96.4685 4.60777 95.7825 4.73469C93.4363 5.14092 87.967 6.47558 79.4414 7.36781C75.1742 7.81948 70.1375 8.14486 64.4071 8.35727C65.5819 8.44066 66.5681 8.51625 67.4325 8.5857C68.4467 8.66708 69.2248 8.73357 69.8952 8.78871C71.2886 8.90234 72.2231 8.97314 73.8723 8.98168C75.4369 8.95403 77.3755 8.88694 79.5425 8.74411C82.6684 8.53892 86.2849 8.1856 89.9864 7.62122C91.5677 7.38228 92.9158 7.59946 93.0046 8.14592C93.0936 8.69072 91.8731 9.36084 90.2631 9.6042C90.2317 9.60902 90.2003 9.61384 90.1688 9.61865C86.5286 10.1706 82.8827 10.5317 79.6894 10.7415C77.3394 10.8969 75.2229 10.967 73.5191 10.9933C72.4982 11.0086 71.6156 11.0078 70.9527 11.0012C70.4256 10.9961 69.7645 10.9849 69.3982 10.9594C69.3496 10.956 69.257 10.9491 69.1463 10.9377C69.1444 10.9375 69.1426 10.9372 69.1407 10.9369C69.0789 10.9306 68.7629 10.899 68.4249 10.823C68.3567 10.8077 68.2082 10.7733 68.0363 10.7166C67.992 10.7126 67.9478 10.7087 67.9035 10.7048C67.2867 10.65 66.657 10.5924 65.977 10.5349C63.3198 10.2952 59.1243 10.0584 50.4048 9.41242C48.5298 9.26098 46.362 9.11698 43.8569 8.82875C37.4389 8.23482 29.5592 4.73058 20.7166 6.32099C19.6455 6.55107 18.8566 6.94193 18.6766 7.55135C18.2581 8.73941 18.0729 10.1934 17.8245 11.6896C18.0525 10.5616 18.2472 9.44584 18.5338 8.44575C18.6187 8.15093 18.7124 7.86747 18.8182 7.60132C19.0061 7.09798 19.6899 6.77357 20.7734 6.57246C21.9759 6.34287 23.2144 6.24626 24.4644 6.24823C25.5028 6.24992 26.5362 6.31764 27.5929 6.43275C29.2935 6.6188 31.0083 6.92674 32.7326 7.28226C33.8979 7.52265 35.0716 7.78591 36.2543 8.05115C36.257 8.05167 36.2597 8.0522 36.2624 8.05273C37.9055 8.42057 39.5707 8.79588 41.2996 9.11157C41.9034 9.22263 42.509 9.32404 43.1137 9.41179C43.3391 9.44446 43.564 9.47522 43.7885 9.50395C45.9632 9.77029 48.07 9.9296 50.4694 10.1392C50.793 10.1722 51.1432 10.2113 51.4003 10.2421C51.6767 10.2749 51.9597 10.3078 52.206 10.3396C52.4277 10.3678 52.6417 10.3958 52.8488 10.4219C52.8765 10.4254 52.9043 10.4289 52.9321 10.4323C53.1686 10.4616 53.3786 10.4882 53.5908 10.5136C53.8009 10.5388 54.0053 10.563 54.2082 10.5845C54.21 10.5846 54.2119 10.5846 54.2138 10.5847C54.4221 10.6067 54.5779 10.6231 54.7996 10.6429C55.0761 10.6675 55.3244 10.6871 55.6089 10.7071C55.8869 10.7266 56.1795 10.7446 56.4776 10.7609C56.7757 10.7771 57.0704 10.7916 57.3777 10.8052C57.6849 10.8187 57.996 10.8314 58.3074 10.8427C58.6187 10.8541 58.941 10.8644 59.2578 10.8742C59.575 10.884 59.8976 10.8935 60.2234 10.9023C60.967 10.9226 61.6864 11.0377 62.2086 11.2281C62.7332 11.4184 63.0285 11.6677 63.0239 11.9256C63.0209 12.1834 62.7171 12.4311 62.1839 12.6147C61.6531 12.7984 60.9252 12.9018 60.1765 12.9039C59.971 12.9045 59.7651 12.9052 59.5592 12.9053C59.437 12.9054 59.3139 12.905 59.1915 12.9048C58.8613 12.9045 58.5228 12.904 58.1881 12.9018C57.8556 12.8996 57.5114 12.8957 57.1687 12.8907C56.8252 12.8857 56.4791 12.8793 56.1222 12.8703C55.7667 12.8612 55.416 12.85 55.0427 12.8351C54.6802 12.8208 54.287 12.801 53.913 12.7785C53.6442 12.7626 53.3171 12.7386 53.0476 12.7173C52.7569 12.6948 52.4746 12.6705 52.206 12.6456C51.9413 12.6209 51.6686 12.5945 51.4187 12.5696C51.3919 12.567 51.3651 12.5644 51.3383 12.5618C51.1153 12.5396 50.9118 12.5182 50.7015 12.4979C50.4717 12.4754 50.2572 12.4552 50.0561 12.437C49.8383 12.4168 49.6933 12.4062 49.5252 12.394C47.7837 12.2891 45.7574 12.199 43.537 11.9894C42.9055 11.9264 42.2807 11.8495 41.677 11.7652C41.3283 11.7166 40.9862 11.6652 40.6497 11.6123C38.8648 11.3323 37.1647 10.9991 35.5172 10.6821C34.3199 10.4512 33.1485 10.2271 31.9999 10.0298C30.3108 9.73945 28.6663 9.5067 27.0945 9.39781C26.1188 9.33014 25.1886 9.31002 24.2826 9.34969C23.2977 9.39296 22.36 9.50832 21.4809 9.70582C21.129 9.77788 20.932 9.88448 21.0975 9.79716C21.2466 9.74622 21.8216 9.17874 21.95 8.70674C21.8727 8.91968 21.7869 9.22646 21.706 9.59399C21.2405 11.8235 20.8603 15.55 19.4845 18.8656C19.457 18.9345 19.429 19.0035 19.4005 19.0727C18.4016 21.4484 17.6435 24.0346 16.948 26.7499C16.512 28.4406 16.0635 30.2111 15.6278 31.9076C15.5462 32.221 15.4668 32.5349 15.39 32.8477C15.141 33.8582 14.9152 34.8715 14.7089 35.8709C14.7081 35.8743 14.7072 35.8777 14.7064 35.8811C14.525 36.7617 14.3584 37.6369 14.2043 38.5156C13.8743 40.3938 13.6033 42.2669 13.372 44.1544C13.1411 46.0395 12.9511 47.9306 12.7859 49.8472C12.6221 51.7496 12.4812 53.6922 12.3503 55.6284C12.2184 57.5747 12.0985 59.4895 11.9554 61.52C11.7793 64.0073 11.5842 66.5002 11.2655 69.0792C11.2346 69.3242 11.196 69.5663 11.1509 69.806C10.4351 73.2002 9.08101 75.6068 8.03749 78.0343C7.6661 78.8691 7.3166 79.6827 7.02801 80.4614C7.02686 80.4644 7.02571 80.4674 7.02457 80.4704C6.47563 81.8759 6.2278 83.3467 6.37725 83.7287C6.43823 83.9084 6.41247 83.8483 6.55243 83.9786C6.23194 83.729 6.41255 83.8855 6.67615 83.9537C6.94958 84.0417 7.33575 84.1398 7.74696 84.2337C8.58158 84.4239 9.53182 84.6122 10.5058 84.8364C11.6627 85.1015 12.8633 85.4159 14.0699 85.8219C15.5734 86.326 17.0753 86.81 18.5785 87.2576C20.8113 87.9243 23.0872 88.5127 25.417 89.0113C25.7033 89.0732 25.9875 89.1269 26.2784 89.1742C28.333 89.5006 30.9729 89.539 33.4686 89.678C34.1466 89.7116 34.7997 89.746 35.4671 89.783C38.6355 89.9576 41.7021 90.171 44.7048 90.3849C47.7494 90.6028 50.7142 90.8206 53.7646 91.0453C53.8997 91.0553 54.0357 91.0654 54.1724 91.0755C57.086 91.2923 60.045 91.5295 63.0621 91.8803C66.0794 92.2326 69.1316 92.7082 72.2071 93.475C72.3596 93.5128 72.5128 93.5515 72.6664 93.591C75.8466 94.4168 78.7919 95.3811 81.717 96.1669C83.3381 96.6053 85.0305 97.0228 86.5654 97.2962C88.0345 97.5597 89.4473 97.7082 90.6417 97.6626C90.6397 97.6606 90.6257 97.6587 90.5988 97.6586C90.5007 97.6562 90.1192 97.6985 89.6931 97.9446C89.2641 98.1838 88.9526 98.5639 88.8423 98.7511C88.7625 98.8803 88.738 98.9443 88.7278 98.9571C88.7298 98.9305 88.8192 98.3251 88.823 97.7786C88.8403 96.9998 88.7914 96.1086 88.6913 95.3385C88.6209 94.7661 88.5453 94.1887 88.467 93.62C88.2553 92.0837 88.0213 90.5812 87.7761 89.1197C87.522 87.6085 87.2941 86.3569 87.0079 84.8517C86.3659 81.1764 86.0539 78.8458 85.7622 76.2193C85.7053 75.7005 85.6493 75.1699 85.5945 74.6114C85.4076 72.6286 85.2706 70.6146 85.2543 68.5128C85.2445 67.3253 85.2419 66.1852 85.2482 65.0129C85.2658 61.926 85.3388 58.8523 85.5192 55.7225C85.6855 52.6414 86.0452 49.3102 86.4255 46.4217C86.5065 45.7618 86.5757 45.1483 86.6238 44.5678C86.8226 42.1411 87.1163 39.725 87.4851 37.3418C87.9577 34.2726 88.5655 31.2187 89.1432 28.3734C89.1518 28.3306 89.1596 28.2924 89.1665 28.2588C89.2561 27.8775 89.1627 28.0679 89.2367 28.661C89.295 29.2625 89.7129 30.079 90.0162 30.3782C90.3256 30.7105 90.4449 30.7307 90.4183 30.7099C90.3933 30.6823 90.2443 30.596 90.0489 30.5107C89.4637 30.2509 88.5196 29.9822 87.5643 29.7742C87.1656 29.6869 86.7525 29.606 86.3546 29.5339C85.9464 29.4608 85.5614 29.397 85.1404 29.3337C84.1169 29.179 83.0717 29.0549 82.0327 28.9508C80.5874 28.8065 79.1599 28.701 77.7534 28.6237C76.3414 28.5462 74.9603 28.498 73.5658 28.4713C72.1207 28.4447 70.9157 28.4399 69.3741 28.4552C68.3685 28.4658 67.383 28.4799 66.3983 28.4958C64.9248 28.5196 63.4576 28.5487 61.9791 28.5812C60.5024 28.6137 59.0376 28.6492 57.5651 28.6862C57.0912 28.6981 56.593 28.7106 56.1148 28.7227C54.644 28.7601 53.188 28.7979 51.7262 28.8331C50.2631 28.868 48.8065 28.9006 47.3376 28.9221C46.9668 28.9274 46.5898 28.9315 46.2307 28.9354C45.0609 28.943 43.9105 28.9253 42.7596 28.8906C40.1505 28.812 37.7323 28.5694 35.7315 28.3748C33.7177 28.1771 31.8998 28.0007 30.5589 28.0041C30.3086 28.0047 30.0848 28.0118 29.8919 28.0245C29.4797 28.0461 29.2061 28.1257 29.3545 28.097C29.4618 28.0834 30.2746 27.7782 30.9042 26.9529C31.2509 26.5082 31.4385 26.0513 31.519 25.7717C31.2558 26.7502 31.14 27.1332 31.0517 27.5663C30.9643 27.9846 30.8996 28.4157 30.8479 28.9111C30.7153 30.179 30.6957 31.741 30.7453 33.3143C30.7489 33.4304 30.7529 33.5483 30.7573 33.668C30.8135 35.3394 30.8716 36.9069 30.9391 38.6024C31.0105 40.4069 31.0997 42.2725 31.1935 44.2779C31.2865 46.269 31.3792 48.3834 31.4553 50.5144C31.5317 52.6629 31.5923 54.7963 31.6316 56.9689C31.6724 59.1182 31.6885 61.2951 31.7053 63.3589C31.7167 64.6604 31.7337 65.8715 31.7799 67.0606C31.8192 68.3488 31.7593 69.3139 31.7008 70.2287C31.5301 72.6218 31.2934 74.6461 31.2035 76.3486C31.1224 77.6993 31.1487 78.9457 31.2477 79.5527C31.2853 79.846 31.3568 79.9457 31.213 79.6531C31.0924 79.389 30.5386 78.6032 29.6964 78.1417C29.2502 77.8869 28.8218 77.7569 28.5272 77.7032C30.1867 78.0615 32.1942 78.0851 34.5481 77.8489C35.7381 77.7302 36.9846 77.5505 38.2582 77.3301C39.7763 77.069 41.3806 76.7027 43.0944 76.2836C46.1698 75.5556 49.5396 74.5489 53.8492 74.1453C54.2768 74.1086 54.7139 74.08 55.1594 74.0618C55.5268 74.0481 55.8751 74.0329 56.2411 74.0139C58.5313 73.8958 60.7851 73.6673 63.0524 73.3238C63.068 73.3216 63.0836 73.3194 63.0992 73.3172C66.087 72.8979 68.7091 72.1645 72.9791 71.6244C73.2281 71.5978 73.4916 71.5731 73.7529 71.553C72.1685 71.6786 70.8896 72.3374 70.1458 72.8864C69.5532 73.32 69.1835 73.7175 68.9177 74.0354C68.6304 74.3887 68.5562 74.5159 68.4432 74.6911C68.3432 74.8515 68.2742 74.9788 68.2223 75.0805C68.0599 75.4087 68.0593 75.4613 68.0622 75.4495C68.0815 75.4082 68.1641 75.128 68.2363 74.8099C68.4121 74.0469 68.5748 73.0641 68.7093 72.0679C68.8455 71.0597 68.9564 70.024 69.0476 68.9915C69.1397 67.9439 69.211 66.9116 69.2651 65.866C69.315 64.9006 69.3483 63.9529 69.3724 62.9029C69.3745 62.8071 69.3765 62.7127 69.3784 62.6175C69.402 61.4718 69.4157 60.1729 69.4203 58.9667C69.4327 55.7797 69.3188 52.6745 68.9878 49.7329C68.9639 49.5229 68.9391 49.3165 68.9133 49.1139C68.6483 46.7436 68.6784 45.3655 68.5629 44.0443C68.5019 42.8232 68.1757 41.6538 68.2925 42.0544C68.3681 42.2073 68.5927 42.7055 69.3195 43.3163C70.028 43.9383 71.219 44.3524 71.8923 44.3814C71.7269 44.3685 71.5638 44.3569 71.3986 44.346C69.6401 44.2305 67.8457 44.2229 66.0249 44.3113C64.5188 44.3836 63.1239 44.5169 61.3841 44.7082C59.7132 44.8843 57.9943 45.0813 56.2591 45.2775C52.8385 45.6645 49.3632 46.0558 45.8267 46.3811C45.5632 46.4052 45.2947 46.4293 45.0305 46.4525C42.8708 46.6368 41.1648 46.5896 39.6996 46.6135C38.29 46.6094 36.9608 46.7603 36.9603 46.7706C36.9748 46.748 37.2825 46.679 37.8712 46.1894C38.4595 45.7283 39.121 44.679 39.2753 43.9481C39.2649 43.8089 39.1387 44.606 39.195 45.409C39.2358 46.2426 39.3773 47.2312 39.5919 48.2549C39.6409 48.4897 39.6934 48.7253 39.7503 48.9666C40.5486 53.0494 40.0352 54.4743 40.0094 56.3195C39.8976 58.0173 39.8398 59.4665 39.9256 60.4933C39.9792 61.2981 40.158 61.7525 40.098 61.6781C40.0691 61.6527 39.9545 61.5276 39.833 61.4522C39.7127 61.3729 39.6163 61.3558 39.66 61.388C39.316 61.2842 39.3113 61.3295 39.4034 61.3419C39.5011 61.3604 39.7107 61.3722 39.9616 61.361C40.7728 61.3289 41.9246 61.0827 43.0593 60.6861C45.6049 59.8458 46.6615 59.9353 47.9506 59.7947C49.155 59.7078 50.2314 59.6635 51.2613 59.6071C53.4362 59.4932 55.4246 59.3284 57.0065 58.9842C57.8181 58.7344 58.4469 58.4438 58.8029 58.2038C59.1491 57.9746 59.2179 57.8191 59.1625 57.8242C59.1053 57.8215 59.0093 57.9524 58.9919 57.9008C59.3374 55.4525 59.2622 50.7989 58.7854 48.0408C58.7557 47.8942 58.7248 47.7804 58.711 47.7542C58.7028 47.7344 58.6879 47.782 58.8306 48.133C59.0074 48.4447 59.2245 49.3452 60.9289 50.5338C61.7603 51.0931 62.9159 51.4434 63.7051 51.5015C64.5098 51.5719 64.9691 51.484 65.1838 51.4521C65.4658 51.4023 65.3833 51.4202 65.1542 51.4923C64.7932 51.6107 64.4351 51.7427 64.0091 51.9071C63.8964 51.9506 63.7774 51.9966 63.6535 52.0454C62.8696 52.3544 61.9254 52.7396 60.5471 53.2845C59.3839 53.7442 57.9251 54.3141 56.1793 54.9577C53.8892 55.7984 51.0673 56.838 47.6909 57.9618C46.2135 58.4529 45.0744 58.3476 45.1829 57.7179C45.2544 57.2781 45.9203 56.6958 46.8109 56.2213C45.0662 56.88 43.3313 57.5415 41.4655 58.1951C40.7227 58.4533 39.9353 58.6103 39.2361 58.6189C38.5617 58.6308 37.7794 58.5079 37.8598 58.2302C37.9592 57.9589 38.5506 57.582 39.097 57.2111C39.6685 56.8395 40.3441 56.4836 41.0659 56.2055C42.9592 55.4723 44.7681 54.7177 46.5781 53.9704C48.3884 53.2213 50.1808 52.4777 51.9749 51.756C52.8345 51.4103 53.6931 51.07 54.5508 50.7389C55.4999 50.3725 56.4447 50.0093 57.3897 49.6512C59.1953 48.9691 61.0063 48.2937 62.7611 47.7401C63.2003 47.6022 63.6341 47.4738 64.057 47.3598C64.4163 47.242 64.6179 47.2808 64.0985 47.2719C63.8451 47.2603 63.3955 47.1121 63.1306 46.9045C62.8571 46.6999 62.7595 46.5358 62.7184 46.4718C62.649 46.341 62.7297 46.4854 62.7754 46.6722C62.8285 46.8663 62.8805 47.1219 62.9246 47.3977C62.9353 47.464 62.946 47.5342 62.9565 47.6077C63.0954 48.5915 63.1673 49.7311 63.2048 50.8311C63.2184 51.2432 63.2273 51.6477 63.231 52.0516C63.234 52.3825 63.2336 52.7145 63.23 53.0567C63.2057 55.0304 63.0924 57.1315 62.741 58.7705C62.5145 59.7578 62.0228 60.4502 61.0519 61.109C58.7916 62.5986 55.0162 63.0523 51.3432 63.3531C49.2367 63.5886 47.4172 63.4311 44.4562 64.3569C43.0221 64.916 41.5286 65.3195 40.1584 65.4324C39.3923 65.5012 38.6154 65.4375 38.2614 65.3106C36.5972 64.7703 35.8225 63.3284 35.5352 60.8339C35.1119 57.7602 36.0009 54.7889 35.2057 50.1501C35.1182 49.8263 35.0373 49.5101 34.9599 49.1868C34.4063 46.8828 34.0922 44.3624 34.5071 42.6534C34.5292 42.5617 34.5489 42.5184 34.576 42.4731C34.5764 42.3144 35.1735 41.8938 36.0555 41.6872C38.3913 41.1084 41.4224 41.2034 44.4773 40.7617C44.8298 40.7079 45.184 40.653 45.5372 40.5975C45.1777 40.6396 44.8223 40.6807 44.4733 40.7205C41.7834 41.0003 39.4886 40.9291 37.4988 41.1623C36.5168 41.2723 35.606 41.4587 34.9994 41.7425C34.6975 41.8816 34.4929 42.0377 34.3886 42.1648C34.2837 42.2947 34.245 42.391 34.208 42.5721C34.1811 42.6918 34.1576 42.8192 34.1376 42.9524C34.0726 43.3864 34.0477 43.8688 34.0539 44.3621C34.0841 46.2139 34.4911 48.1849 35.0603 50.188C35.9927 55.1985 34.6914 59.0536 35.8128 62.8699C36.2862 64.3341 36.9912 65.0607 38.1905 65.5095C39.67 66.0104 42.5057 65.4425 44.5666 64.6469C50.6361 63.2765 54.2173 63.8515 57.6837 62.9488C61.0659 62.2153 62.9614 60.7433 63.3377 58.909C63.7591 57.0806 63.8711 55.1152 63.9456 53.4783C64.0407 50.949 63.99 48.8289 63.8194 47.2586C63.7609 46.5832 63.5418 45.8997 63.5817 45.9573C63.6057 45.977 63.7012 46.0766 63.865 46.149C64.0282 46.2243 64.1985 46.23 64.239 46.2187C64.3244 46.1888 64.0731 46.2121 63.7701 46.279C62.4326 46.5399 61.2773 46.8143 60.1435 47.0626C58.4605 47.4337 56.2029 48.1039 53.8316 48.876C50.0668 50.1014 46.0451 51.6957 43.5594 52.7196C42.0897 53.3289 40.7325 53.3875 40.5298 52.8724C40.3392 52.3538 41.3518 51.4666 42.8147 50.8601C45.2452 49.8598 49.1584 48.2925 53.1027 46.9876C56.0449 46.0191 58.9786 45.1308 61.2726 44.6802C61.8814 44.561 62.5126 44.4357 63.2454 44.3027C63.509 44.258 63.7985 44.1862 64.1448 44.1846C64.4873 44.1708 64.9165 44.3425 65.1391 44.6588C65.5857 45.285 65.6905 46.0668 65.8079 46.9496C65.9975 48.6856 66.0554 50.8919 65.9386 53.7765C65.8533 55.4238 65.7551 57.3104 65.2889 59.3616C63.852 65.6106 54.8209 65.109 45.2791 66.519C42.9526 67.3504 40.147 68.1666 37.5178 67.3963C35.7894 66.816 34.4381 65.3389 33.8896 63.4318C32.6232 58.8149 33.9429 54.6628 33.1179 50.6939C32.5704 48.7564 32.1491 46.8245 32.0567 44.8169C32.033 44.2445 32.0389 43.6643 32.097 43.0828C32.0975 43.0792 32.098 43.0755 32.0985 43.0719C32.1335 42.7283 32.1869 42.3843 32.268 42.0453C32.7269 39.9782 35.2284 39.3911 37.2963 39.1646C39.4643 38.9185 41.799 38.9895 44.2793 38.7245C45.8597 38.5444 47.5285 38.3431 49.2975 38.1282C52.869 37.6967 56.679 37.1876 60.5542 36.7319C64.5111 36.2231 68.6238 35.9935 72.5587 36.2728C73.983 36.3096 75.206 37.4681 75.6909 38.5886C76.2292 39.7249 76.4402 40.8699 76.6008 41.9695C76.9065 44.1655 76.8959 46.2718 77.1399 48.0726C77.9484 54.0294 77.9216 58.7277 77.9825 60.8816C78.0038 62.0379 78.0158 63.1627 78.0125 64.3418C78.0052 66.119 77.972 68.0567 77.8165 70.4846C77.7357 71.7017 77.6268 73.0407 77.4259 74.5787C77.3248 75.3398 77.2009 76.1614 77.0139 77.0404C76.9169 77.4862 76.8131 77.9302 76.6387 78.459C76.5584 78.6986 76.4499 78.9964 76.287 79.3104C76.1806 79.5046 76.1195 79.6295 75.8945 79.9021C75.7839 80.0298 75.6619 80.1547 75.4703 80.2909C75.2374 80.4556 74.9013 80.6141 74.5021 80.6472C72.6492 80.8367 70.4103 81.3976 67.8004 81.9351C65.1537 82.4876 61.9793 83.0276 58.4951 83.3231C57.5343 83.4535 56.5754 83.5652 55.6194 83.659C51.9099 84.0771 48.2181 85.4555 44.7675 86.4168C43.2172 86.86 41.6867 87.2889 40.1537 87.6581C38.1086 88.1517 36.0986 88.5873 34.0385 88.8864C33.0065 89.0353 31.946 89.1508 30.8587 89.2071C29.372 89.2853 27.8202 89.2445 26.2889 89.0406C24.5394 88.8237 22.5305 87.6712 21.4385 86.1976C19.4156 83.4495 19.2026 80.8979 18.9393 78.5769C18.5776 74.7456 19.05 70.4538 18.8264 67.451C18.4593 62.3273 18.4379 57.1737 18.4235 51.0561C18.4329 44.8516 18.437 39.1015 18.4481 33.745C18.453 31.888 18.5117 30.0467 18.7302 28.1172C18.8937 26.296 19.5628 23.728 19.9357 22.6263C20.3302 21.0389 21.5408 19.1191 23.0569 18.0724C24.5542 17.0011 25.9355 16.64 27.0417 16.4215C25.8495 16.6492 24.3868 17.052 22.88 18.1823C21.3657 19.2868 20.2751 21.1513 19.8977 22.616C18.4947 26.4852 18.3103 30.8759 18.2336 33.7464C18.2175 34.3896 18.2013 34.9998 18.185 35.5814C18.1632 36.3498 18.1419 37.1545 18.1207 37.8637C17.9714 43.0418 17.8507 46.7758 17.8479 50.7966C17.8643 57.6179 17.7269 62.7111 17.8955 67.479C17.9408 70.1732 17.402 74.0438 17.4822 77.2949C17.8128 80.5321 17.0028 84.672 22.3079 89.1139C23.4337 89.8914 24.7608 90.3815 25.9854 90.5777C28.0583 90.8796 30.2795 90.9009 32.4426 90.6989C35.1242 90.4514 37.7673 89.9115 40.446 89.2505C43.7233 88.4498 46.9267 87.3275 50.0626 86.4346C51.9617 85.8988 53.8709 85.4106 55.6941 85.2192C59.9165 84.8422 64.4069 84.0279 68.8119 82.8879C68.8146 82.8873 68.8173 82.8868 68.8201 82.8862C70.1467 82.5519 71.4657 82.1985 72.7235 81.9132C73.3601 81.7694 73.9868 81.6444 74.5773 81.5603C75.1895 81.5083 75.6959 81.2565 76.0299 81.0099C76.2878 80.8196 76.4699 80.6276 76.6159 80.4496C76.8961 80.0949 76.9827 79.9117 77.1095 79.6631C77.2937 79.2783 77.4093 78.9287 77.4987 78.6278C77.6779 78.0132 77.7828 77.4808 77.8807 76.9315C78.0649 75.8663 78.1818 74.8314 78.2761 73.8164C78.4627 71.7747 78.558 69.7375 78.6105 67.718C78.7106 63.6629 78.6414 59.6157 78.4045 55.6149C78.3482 54.6799 78.2647 53.5639 78.1369 52.2796C78.01 51.0149 77.8431 49.5921 77.592 48.0154C77.3375 46.4134 77.3083 44.3824 77.004 42.1714C76.8413 41.0601 76.6395 39.8777 76.0951 38.6419C75.6235 37.4449 74.2716 35.9826 72.5858 35.9428C68.8643 35.6817 64.766 35.8323 60.5097 36.3039C58.2994 36.5213 56.0234 36.7601 53.6838 36.9845C50.6995 37.2701 47.6069 37.5185 44.1817 37.7209C43.7059 37.7474 43.2115 37.7575 42.702 37.7585C41.4962 37.7615 40.2115 37.7091 38.8223 37.7081C37.6109 37.7161 36.3194 37.7255 34.8348 38.034C33.4674 38.2938 31.168 39.2384 30.5302 41.5734C29.6739 44.826 30.1681 47.947 30.92 51.2663C31.1593 52.3728 30.9819 54.4037 30.8732 56.4173C30.7778 58.4347 30.643 60.667 31.1696 63.2123C31.5762 65.6845 33.5989 68.905 36.6424 69.8516C40.4282 70.937 43.2973 69.9583 46.2125 68.9716C47.2263 68.6269 49.434 68.5194 51.3363 68.3845C56.052 67.8243 62.0935 68.3941 66.5931 62.8184C67.1872 61.9407 67.6048 60.9508 67.8406 59.9536C68.7699 55.1223 68.7591 51.1523 68.276 46.5661C68.1221 45.734 68.1009 44.9678 67.3592 43.6211C67.1498 43.2814 66.8528 42.872 66.3343 42.4905C65.8272 42.1067 65.0981 41.8636 64.544 41.8284C63.4175 41.773 62.9612 42.0118 62.6516 42.0663C58.9784 43.0436 55.7805 44.3081 52.5269 45.4962C48.6116 46.9546 44.824 48.5318 41.0771 50.0221C41.0746 50.0231 41.0721 50.0241 41.0696 50.0252C39.6079 50.6075 38.3284 50.6007 38.191 50.0606C38.0353 49.5303 39.0395 48.6779 40.4892 48.099C44.1607 46.6366 47.9066 45.0793 51.8052 43.6265C55.0816 42.4319 58.2501 41.1688 62.1374 40.1297C62.4294 40.0963 62.9775 39.7546 64.7059 39.8313C65.5553 39.8825 66.7173 40.2672 67.5094 40.8677C68.3204 41.464 68.7638 42.0842 69.0664 42.5723C70.116 44.4918 70.0649 45.3114 70.2558 46.2585C70.7727 51.2675 70.8057 55.0375 69.7917 60.4062C69.4951 61.6723 68.9408 62.9646 68.1524 64.0855C62.5157 70.7012 56.2595 69.7249 51.5071 70.3803C50.5137 70.4487 49.5493 70.5088 48.6806 70.5895C48.2584 70.6286 47.836 70.6767 47.505 70.7287C47.1714 70.7771 46.8824 70.8571 46.9248 70.8435C43.7377 71.8749 40.8423 73.0891 35.9698 71.7383C32.1616 70.5967 29.5668 66.3064 29.1807 63.4909C28.6054 60.5457 28.7872 58.1719 28.8835 56.1004C29.0085 54.1991 29.0849 52.1688 28.9788 51.7718C28.2029 48.2672 27.5824 45.0408 28.5907 41.0468C29.0103 39.4006 30.3599 37.8388 31.586 37.1502C32.8165 36.4192 33.8771 36.1698 34.7972 35.9907C36.6321 35.6702 38.0633 35.6968 39.3839 35.6984C40.8678 35.7138 42.1611 35.7621 43.288 35.739C43.5304 35.7343 43.7651 35.7265 43.9868 35.7153C47.6119 35.5023 50.7227 35.2539 53.7513 34.9644C55.9897 34.7495 58.1698 34.5219 60.3025 34.3126C64.6058 33.8352 68.8991 33.673 72.7499 33.9456C75.28 33.9856 77.4157 36.3713 77.9403 37.8546C78.6229 39.4333 78.8208 40.7428 79.0001 41.9479C79.3195 44.3146 79.3564 46.4048 79.5888 47.7626C79.8032 49.1111 79.9563 50.3456 80.0768 51.472C80.2206 52.8188 80.3154 54.0054 80.3805 55.0102C80.644 59.1536 80.7265 63.3244 80.6324 67.5394C80.5821 69.6435 80.4876 71.7645 80.2955 73.9144C80.1959 74.9985 80.075 76.0952 79.8731 77.2699C79.7678 77.8655 79.649 78.4758 79.4362 79.2066C79.3781 79.4018 79.3186 79.5884 79.2438 79.7962C79.1567 80.0345 79.058 80.2784 78.9324 80.5403C78.7633 80.8747 78.6232 81.1679 78.2078 81.6989C77.9788 81.9819 77.6852 82.2991 77.251 82.6236C76.7201 83.0243 75.823 83.4902 74.7435 83.5772C74.439 83.6236 74.1121 83.6837 73.7675 83.7547C72.6562 83.9841 71.3824 84.3189 70.0742 84.6529C70.0716 84.6537 70.069 84.6546 70.0664 84.6554C65.4099 85.8876 60.4037 86.8407 55.7909 87.2374C54.3627 87.3956 52.7584 87.778 51.1103 88.2327C47.7966 89.1546 44.3736 90.3863 40.8139 91.2549C38.7118 91.7757 36.6189 92.2249 34.4357 92.5274C31.6751 92.9112 28.6508 93.0417 25.5908 92.5763C24.9578 92.4656 24.3641 92.3183 23.6977 92.082C19.673 90.765 17.2091 86.7729 16.5132 84.3757C15.6837 81.8098 15.5569 79.8007 15.4832 77.8578C15.3526 74.1979 15.9494 69.9047 15.893 67.5394C15.7231 62.5813 15.8628 57.5637 15.8458 50.828ZM49.4881 55.207C51.7973 54.4202 53.7874 53.6982 55.4575 53.0879C56.4154 52.737 57.2682 52.4134 58.0267 52.1197C57.1651 52.4173 56.303 52.7189 55.4331 53.0246C54.4894 53.3552 53.5385 53.6991 52.5836 54.0507C51.5555 54.4293 50.5245 54.8158 49.4881 55.207ZM57.8625 81.3666C58.4747 81.2864 59.0938 81.1978 59.7057 81.102C58.3149 81.257 56.9165 81.3727 55.5136 81.4518C55.1922 81.47 54.8707 81.4959 54.5501 81.5284C52.421 81.7471 50.3444 82.2374 48.2938 82.7622C50.7322 82.1625 53.1502 81.6337 55.5167 81.517C56.319 81.4779 57.0904 81.4282 57.8625 81.3666ZM20.4265 51.0336C20.4403 57.2352 20.4742 62.4178 20.8527 67.3899C21.0611 70.268 20.7171 73.7641 20.8826 76.9672C21.011 79.1837 21.1587 81.4526 22.3128 83.804C22.8024 84.7628 23.5901 85.7441 24.6644 86.3508C21.599 84.0979 21.7002 80.9544 21.5344 78.7278C21.4797 76.3912 21.6947 74.3215 21.868 72.4862C22.0522 70.574 22.261 68.8011 22.2442 67.348C22.2453 59.4762 22.5388 54.5699 22.6405 50.044C22.6864 48.4466 22.7279 46.9595 22.7633 45.397C22.6945 44.1167 22.6248 42.769 22.562 41.4427C22.4732 39.5392 22.3848 37.5374 22.3063 35.5824C22.2815 34.9779 22.2571 34.3571 22.2332 33.7213C22.182 32.3474 22.1688 30.9682 22.2349 29.5756C22.2969 27.5843 22.7301 25.2613 23.2517 23.5267C23.2536 23.5192 23.2556 23.5117 23.2575 23.5042C23.5425 22.1993 24.6666 20.8348 25.8604 20.2893C27.0526 19.7007 28.1375 19.5578 29.1397 19.4656C29.2552 19.4561 29.374 19.4479 29.4831 19.4412C31.5619 19.3306 33.4138 19.5159 35.0893 19.6511C36.8018 19.8007 38.1856 19.9281 39.4211 19.9956C40.9624 20.0819 42.5239 20.1573 44.0554 20.1916C44.908 20.211 45.746 20.2178 46.5862 20.2096C47.2629 20.203 47.9581 20.1935 48.656 20.1822C50.2076 20.156 51.7541 20.1208 53.3073 20.085C53.8035 20.0732 54.34 20.0611 54.8319 20.0492C55.0611 20.0438 55.2917 20.0381 55.523 20.0327C52.6336 19.9798 49.6307 19.9221 46.6034 19.7869C46.4493 19.7798 46.2952 19.7722 46.1412 19.764C41.5771 19.5798 36.9318 18.5445 30.7934 18.1782C29.5296 18.1563 28.1863 18.1348 26.468 18.6161C24.802 18.9524 22.3136 20.9383 21.8686 23.1512C20.7864 26.1287 20.429 30.2526 20.4503 33.7325C20.4392 39.0433 20.4359 44.7669 20.4265 51.0336ZM96.9298 34.0556C97.1014 33.0489 97.3412 31.6738 97.6471 29.9382C97.7083 29.5073 97.9704 28.5514 97.7183 27.2256C97.4588 25.7563 96.3818 24.4757 95.4911 23.8495C95.512 23.8658 95.5338 23.8824 95.5545 23.8989C96.337 24.5068 97.2719 25.5853 97.5891 26.9657C97.9109 28.3235 97.6152 29.4258 97.5192 29.9146C97.4268 30.3492 97.3341 30.7866 97.2405 31.2325C96.6502 34.0411 96.113 36.7353 95.6884 39.4607C95.3888 41.3788 95.1467 43.2946 94.9682 45.2192C94.8853 46.1284 94.7701 47.0095 94.6555 47.8556C94.2555 50.6788 93.95 53.3755 93.7615 56.156C93.5683 58.9385 93.4625 61.7095 93.4061 64.5269C93.3886 65.4094 93.3763 66.3068 93.3686 67.2175C93.4467 65.2179 93.5338 63.1173 93.657 60.95C93.7568 59.1931 93.8796 57.3868 94.0543 55.494C94.1218 54.7638 94.2135 53.8926 94.3364 52.8783C94.5514 50.904 94.9982 48.5926 95.3655 45.2502C95.669 42.0712 96.185 38.3596 96.9298 34.0556ZM95.7337 89.3305C95.8235 89.9837 95.911 90.6403 95.9931 91.2877C96.135 92.4073 96.2648 93.5161 96.3781 94.6196C96.46 95.4362 96.4977 96.2168 96.5017 97.0115C96.4826 98.3343 96.497 99.5447 95.9761 101.319C95.9197 101.494 95.8562 101.669 95.7798 101.853C95.4279 102.74 94.6207 103.938 93.3659 104.59C92.3634 105.125 91.3839 105.228 90.6793 105.235C90.1658 105.24 89.6587 105.225 89.1654 105.194C89.6609 105.232 90.1679 105.255 90.6794 105.257C91.5434 105.267 92.9281 105.071 94.0839 104.183C95.2365 103.304 95.761 102.18 96.0419 101.34C96.8246 98.5102 96.6488 96.7752 96.5266 94.6058C96.3019 92.0331 96.0092 89.4843 95.7086 86.9147C95.6995 86.8371 95.6898 86.7591 95.6806 86.6807C95.6995 87.5812 95.7178 88.4652 95.7337 89.3305Z" fill="#5390c7" fill-opacity="0.25"/>
</svg>
