<svg width="127" height="139" viewBox="0 0 127 139" fill="none" xmlns="http://www.w3.org/2000/svg">
<path opacity="0.5" d="M41.9283 25.8967C44.5609 25.1061 46.6634 24.7832 48.0619 24.4155C51.0336 23.5961 54.3199 23.2522 57.6939 23.4478C57.6974 23.4479 57.7009 23.448 57.7044 23.4481C58.6381 23.5007 59.5793 23.5918 60.5286 23.7177C61.9009 23.8996 63.2972 24.1562 64.7251 24.4806C71.7892 26.1366 78.0679 29.6387 86.598 33.5808C86.9305 33.7356 87.2563 33.8881 87.5887 34.0445C94.6549 37.321 100.984 41.1214 105.574 44.3379C110.759 48.0362 112.714 51.5018 114.532 54.1764C115.243 55.3202 116.037 56.4617 117.818 59.3852C118.911 61.2136 120.335 63.6193 122.085 67.2794C122.191 67.503 122.296 67.7301 122.4 67.9608C123.442 70.2698 124.432 73.0844 125.108 76.4052C126.12 81.0642 126.237 86.9159 126.309 92.3736C126.074 101.952 121.615 108.83 116.382 115.367C115.775 116.066 115.161 116.775 114.547 117.478C110.761 121.839 106.824 126.059 102.993 129.512C100.476 131.792 97.7355 133.133 95.454 134.035C90.4789 135.936 86.0175 136.737 81.5773 137.702C75.8602 138.937 70.2271 137.83 65.4644 136.504C62.5538 135.706 59.8022 134.812 57.2952 134.346C50.9001 133.315 43.3591 130.55 37.1365 126.791C36.5527 126.467 35.9829 126.15 35.4212 125.842C28.5829 122.115 21.9353 117.498 16.4563 111.805C15.7067 111.047 14.9807 110.296 14.2744 109.588C14.2028 109.516 14.1314 109.445 14.0602 109.374C7.59586 102.116 7.7066 94.4945 4.54321 87.7445C4.37864 87.3714 4.2085 87.006 4.03474 86.6548C-1.62849 73.9483 0.765477 62.73 2.12946 52.1931C2.27426 50.9767 2.47493 49.7636 2.72731 48.5547C3.77209 43.4744 5.77481 38.699 7.30178 33.6859C7.32807 33.6 7.35443 33.5144 7.38088 33.429C8.96355 27.3781 13.6478 19.0363 17.9074 12.5469C20.0465 8.38222 23.7262 5.89238 27.2258 4.01862C28.2592 3.47408 29.3008 2.98408 30.3428 2.53091C30.348 2.52864 30.3532 2.52636 30.3584 2.52408C30.6411 2.40126 30.9233 2.28133 31.2015 2.16526C40.1399 -0.691618 47.3099 0.498906 54.0397 0.117544C57.5051 0.0473006 60.7205 0.772035 63.3188 1.57931C72.0398 4.5661 76.4889 6.4619 80.0333 7.52091C80.0569 7.52852 80.1262 7.55531 80.1494 7.56384C81.9156 8.2067 83.3311 8.71269 84.6481 9.18441C86.1273 9.71467 87.4958 10.2064 89.1161 10.8126C94.5632 12.9021 102.162 15.7542 110.647 19.7501C110.665 19.7591 110.717 19.7888 110.735 19.7983C111.437 20.1986 112.207 20.688 112.887 21.1814C112.921 21.206 112.955 21.2303 112.988 21.2545C114.443 22.3253 115.116 23.5194 114.766 23.9385C114.397 24.3589 113.136 23.8476 111.79 22.8598C111.136 22.3824 110.428 21.9291 109.741 21.5371C109.733 21.533 109.711 21.5203 109.704 21.5165C105.694 19.5476 101.973 18.0916 98.4818 16.6448C98.0952 16.9998 96.8527 16.8792 95.5396 16.3421C93.2617 15.4102 87.652 13.3244 79.0826 10.2822C75.1895 9.08933 70.7834 7.49656 65.8054 5.79511C66.869 6.28428 67.7469 6.71588 68.5173 7.10052C69.424 7.55366 70.1072 7.90694 70.7067 8.21349C71.9452 8.8476 72.7725 9.26898 74.2852 9.9094C75.5043 10.3937 76.9773 10.9528 78.635 11.5448L78.5932 11.5293C81.6661 12.7658 85.3384 14.2271 89.1314 15.7557C90.5948 16.3456 91.6097 17.2405 91.395 17.7499C91.183 18.2606 89.8237 18.193 88.3626 17.6044C88.3341 17.593 88.3055 17.5816 88.2769 17.5701C84.6156 16.0949 80.9739 14.6455 77.8615 13.3938L77.9775 13.4367C76.155 12.7866 74.5282 12.1668 73.1849 11.6301C72.247 11.2551 71.4291 10.9143 70.8318 10.6594C70.3456 10.4524 69.7543 10.1961 69.4238 10.0328C69.3806 10.0114 69.2985 9.97013 69.2023 9.91845C69.2008 9.91749 69.1992 9.91653 69.1976 9.91558C69.1451 9.88724 68.8673 9.73916 68.5867 9.54274C68.5303 9.50318 68.4083 9.41637 68.2747 9.30084C68.2366 9.28115 68.1974 9.26098 68.1578 9.24072C67.611 8.96022 67.0633 8.67835 66.4648 8.38165C64.2654 7.48391 61.0351 5.07659 54.1031 4.6346C53.542 4.6204 52.9902 4.60594 52.3914 4.59222C47.6457 4.70171 40.2576 3.66591 32.7853 5.94338C28.6996 7.66246 23.8689 9.95861 21.5332 14.3618C21.0941 15.2362 20.5913 16.0622 20.0758 16.8691C20.6133 16.0902 21.1454 15.2812 21.6202 14.4053C21.7083 14.2452 21.8011 14.0877 21.8984 13.9323C23.2524 11.7761 25.4303 10.1108 27.7924 8.78117C28.7019 8.27026 29.633 7.81249 30.6043 7.37916C31.381 7.03294 32.174 6.70821 32.9761 6.39851C33.6985 6.12204 34.4729 5.91774 35.2742 5.76529C36.3514 5.56025 37.4966 5.44043 38.6476 5.3615C38.6502 5.36125 38.6528 5.361 38.6554 5.36074C40.2636 5.25211 41.9081 5.21692 43.5848 5.20267C44.1633 5.19932 44.7464 5.19824 45.3233 5.19893C47.6171 5.20257 49.8848 5.23144 52.4945 5.31448C52.8155 5.32989 53.1603 5.35089 53.4159 5.36883C53.6548 5.3851 53.8887 5.40176 54.1142 5.41884C54.1455 5.42156 54.1767 5.42437 54.2074 5.42725C54.4087 5.44606 54.5965 5.46814 54.7777 5.49095C54.8021 5.49398 54.8265 5.49706 54.8508 5.50017C55.0545 5.52647 55.2443 5.55373 55.4301 5.58216C55.6149 5.61055 55.7902 5.64024 55.964 5.66959C55.9657 5.66972 55.9673 5.66984 55.9689 5.66996C56.1507 5.70054 56.2877 5.7251 56.4787 5.75872C56.7197 5.80139 56.9251 5.83961 57.175 5.88737C57.4166 5.93376 57.6683 5.98456 57.9227 6.03909C58.1777 6.09368 58.4358 6.15211 58.7005 6.21568C58.9629 6.27878 59.2344 6.3479 59.5039 6.42021C59.7755 6.49298 60.0503 6.5701 60.3288 6.65234C60.6079 6.73476 60.8881 6.82158 61.1727 6.91302C61.8283 7.12366 62.4256 7.4393 62.8334 7.77863C63.2353 8.11611 63.4154 8.44621 63.3256 8.68766C63.2358 8.92969 62.8835 9.06584 62.366 9.08438C61.8433 9.10115 61.1998 9.00116 60.5736 8.82346C60.4037 8.77515 60.2313 8.72781 60.0624 8.68259C59.9625 8.65582 59.8603 8.62856 59.7593 8.60253C59.4885 8.53274 59.217 8.46731 58.9474 8.40569C58.6777 8.34404 58.4084 8.28614 58.1375 8.23256C57.8664 8.17891 57.5939 8.12953 57.3195 8.08389C57.0457 8.03833 56.7672 7.99624 56.4855 7.95791C56.2099 7.92038 55.8973 7.88214 55.6166 7.85161C55.412 7.82931 55.1575 7.80256 54.9457 7.78357C54.7227 7.76344 54.5052 7.74595 54.2912 7.7314C54.2428 7.72811 54.1945 7.72495 54.1465 7.72195C53.9393 7.71223 53.7399 7.7021 53.5492 7.69244C53.5229 7.69118 53.4966 7.68993 53.4703 7.68867C53.2513 7.67765 53.0515 7.66672 52.8461 7.65744C52.6212 7.64699 52.4107 7.63838 52.2126 7.63132C51.9946 7.62331 51.8643 7.62079 51.697 7.61828C49.5351 7.6185 46.8638 7.66344 44.3735 7.74714C44.0522 7.75802 43.7549 7.76866 43.441 7.78095C41.8214 7.84627 40.2124 7.93525 38.7166 8.09162C37.6267 8.20602 36.598 8.35868 35.702 8.57355C35.1019 8.71723 34.5725 8.88615 34.1025 9.08563C33.2625 9.44041 32.4472 9.80721 31.6653 10.1925C30.7767 10.6304 29.9412 11.0854 29.1508 11.5757C27.0832 12.8472 25.4219 14.3775 24.6677 15.8491C24.6563 15.8707 24.6451 15.8923 24.6341 15.9139C22.9212 19.1634 21.2176 21.2272 19.8227 23.5456C18.3892 25.8436 17.111 28.2947 16.0077 30.8036C15.2856 32.4367 14.5911 34.1363 13.9724 35.7867C13.8861 36.0203 13.8003 36.2485 13.714 36.4752C13.3037 37.5526 12.8852 38.584 12.4696 39.5838C12.4681 39.5872 12.4666 39.5906 12.465 39.594C12.1005 40.4708 11.7394 41.3221 11.39 42.158C10.6405 43.9491 9.9495 45.6627 9.37668 47.3722C8.80348 49.0793 8.3508 50.7762 8.04609 52.5112C8.0193 52.6635 7.9935 52.8168 7.96873 52.9713C7.66287 54.8345 7.32921 56.5125 7.06778 58.2025C6.77288 60.0754 6.54136 61.8919 6.3818 63.8006C6.17434 66.3156 6.1078 68.7935 6.23683 71.3019C6.36676 73.7861 6.69637 76.249 7.3075 78.5807C7.52102 79.395 7.76873 80.1944 8.0546 80.9691C8.05566 80.9721 8.05673 80.9751 8.0578 80.9781C8.42394 81.9693 8.85178 82.9218 9.34587 83.8219C9.63403 84.3504 9.90485 84.8838 10.1603 85.415C11.4297 88.0668 12.373 90.6959 13.3134 93.2318C14.2493 95.7597 15.1664 98.2356 16.2771 100.375C17.0308 101.829 17.9085 103.132 18.838 103.96C19.5383 104.585 20.206 105.208 20.8585 105.817C22.6839 107.531 24.459 109.121 26.3302 110.582C26.8193 110.965 27.3203 111.346 27.8244 111.718C30.2257 113.49 32.6812 115.06 35.2008 116.518C36.5123 117.276 37.8463 118.005 39.2048 118.715C40.5165 119.4 41.7851 120.093 43.032 120.742C45.6258 122.105 48.1624 123.233 50.8775 124.054C53.423 124.831 56.0413 125.355 58.7742 125.732C58.9909 125.763 59.2071 125.796 59.4228 125.83C62.7892 126.383 65.8081 127.259 68.7101 127.863C70.3212 128.204 71.9727 128.492 73.4694 128.623C74.9818 128.758 76.4174 128.751 77.7673 128.575C78.3136 128.504 78.8499 128.406 79.3695 128.281C79.4154 128.27 79.4612 128.259 79.507 128.247C80.4295 128.023 81.3374 127.801 82.2236 127.579C83.8131 127.18 85.3443 126.778 86.7791 126.352C88.2143 125.925 89.5476 125.474 90.7394 124.975C91.9665 124.458 92.8915 123.979 93.8277 123.341C94.7395 122.739 95.367 122.19 95.8881 121.658C97.0294 120.529 97.9819 119.561 98.9812 118.509C99.3078 118.164 99.6394 117.809 99.9834 117.436C101.957 115.308 103.879 113.1 105.789 110.86C106.557 109.961 107.323 109.056 108.099 108.146C109.032 107.043 109.977 105.735 110.832 104.405C112.244 102.208 113.477 99.8564 114.305 97.5892C114.966 95.7877 115.347 94.0064 115.326 92.6604C115.315 92.0397 115.31 91.4268 115.305 90.8267C115.288 87.814 115.271 84.9804 115.028 82.3815C114.893 80.8807 114.676 79.333 114.384 77.936C114.174 76.9265 113.923 75.9528 113.629 75.0148C113.509 74.6312 113.383 74.255 113.248 73.8821C113.009 73.218 112.749 72.5738 112.466 71.946C112.182 71.3195 111.886 70.6987 111.582 70.0877C110.951 68.8195 110.292 67.6049 109.609 66.4396C108.925 65.2745 108.216 64.1601 107.471 63.0824C106.697 61.9686 106.026 61.0694 105.132 59.988C104.548 59.2854 103.963 58.6234 103.373 58.0012C102.492 57.0729 101.588 56.2267 100.709 55.5513C100.195 55.1568 99.6955 54.8275 99.2559 54.5959C98.7273 54.2976 98.2057 54.0035 97.6873 53.714C97.2847 53.4891 96.8595 53.2531 96.4603 53.0345C95.2225 52.3561 94.0097 51.7174 92.7844 51.1057C91.5612 50.4946 90.3381 49.9157 89.1003 49.358C87.8607 48.7997 86.6239 48.2697 85.3494 47.7469C83.8421 47.1288 82.3861 46.522 81.015 45.9495C80.3846 45.6855 79.7832 45.429 79.2067 45.1809C77.3018 44.3601 75.5455 43.5769 73.8606 42.8397C73.5475 42.7028 73.2285 42.5637 72.9176 42.429C71.5642 41.8418 70.2534 41.2856 68.9838 40.782C67.4204 40.162 65.9164 39.6192 64.4931 39.2071C63.5872 38.9447 62.7109 38.7364 61.9078 38.6047C61.3781 38.5148 60.8564 38.4387 60.3459 38.3779C58.9073 38.208 57.5939 38.1542 56.2874 38.2447C54.9946 38.3367 53.7935 38.5746 52.5436 39.0138C52.4812 39.0358 52.4188 39.0582 52.3564 39.0812C50.0131 39.8429 48.0839 40.2694 46.7061 40.7599C45.2247 41.2624 44.6447 41.7596 44.5687 41.9357C44.5523 41.9621 44.5388 41.9871 44.5251 42.0139C43.4405 43.3998 42.3876 44.7868 41.3999 46.154C40.2645 47.726 39.2026 49.2881 38.2762 50.8107C37.8979 51.4326 37.5372 52.057 37.2096 52.6651C36.8121 53.4024 36.4684 54.172 36.1649 54.9828C35.3713 57.0679 34.8122 59.7515 34.0919 62.9298C34.0589 63.0727 34.0265 63.216 33.9948 63.3596C33.3969 66.0642 33.0457 68.7927 33.052 71.2894C33.0533 73.365 33.3256 75.2819 33.8285 76.7177C33.9925 77.181 34.157 77.6335 34.3251 78.0804C35.3403 80.7898 36.4678 83.1981 37.7351 84.9717C38.0149 85.3652 38.3007 85.7297 38.5937 86.0666C39.3547 86.9403 40.1542 87.6272 41.0817 88.2059C41.4392 88.428 41.8071 88.6327 42.1939 88.8246C42.2039 88.8297 42.2139 88.8349 42.2239 88.84C44.0893 89.7897 46.5569 90.3343 50.1516 91.3237C50.6098 91.4546 51.0761 91.5941 51.5506 91.7458C52.2384 91.967 52.9181 92.1814 53.6049 92.3933C54.6632 92.7196 55.7028 93.0292 56.7496 93.3278C57.7975 93.6266 58.8377 93.9096 59.856 94.1701C60.8857 94.4332 61.884 94.672 62.8774 94.8862C63.7877 95.0824 64.6832 95.256 65.6236 95.4103C65.7099 95.4244 65.7953 95.4381 65.8799 95.4514C66.2863 95.5155 66.7051 95.5764 67.114 95.6283C67.8542 95.7234 68.6028 95.8164 69.3096 95.9004C72.3888 96.2695 75.396 96.4581 77.6871 96.216C78.4038 96.1419 79.0212 96.0094 79.3192 95.9058C79.6348 95.8176 79.4963 95.7178 78.9231 96.2981C79.7104 95.4381 80.4326 94.6347 81.0481 93.8854C81.7246 93.0636 82.2643 92.3114 82.6511 91.6401C83.2529 90.5863 83.518 89.7688 83.6382 88.7355C83.7157 88.0294 83.7032 87.2186 83.583 86.2891C83.2956 84.005 83.1528 82.0071 82.9567 80.132C82.662 77.0004 82.0901 74.014 81.4532 72.8262C81.1889 72.3027 81.115 72.3355 81.2868 72.4128C79.6885 71.4462 78.118 70.5175 76.5968 69.681C74.3436 68.4414 72.1989 67.4156 70.1268 66.7251C69.2212 66.4269 68.3662 66.151 67.5338 65.9038C64.4007 64.9225 61.1219 64.4926 59.9412 64.7969C59.7426 64.8346 59.6334 64.8715 59.5919 64.8785C57.2107 66.0836 55.2297 67.5316 54.5705 68.4404C54.3911 68.6699 54.3092 68.8217 54.2682 68.892C54.2285 68.966 54.2113 68.964 54.1941 69.0321C54.2503 70.9447 54.3918 72.779 54.679 74.3451C54.9616 76.0198 55.5434 77.3414 55.8007 77.6461C55.9574 77.7542 55.9759 77.7002 56.0209 77.6847C56.1194 77.7195 56.2716 77.7751 56.3936 77.8165C59.5899 78.8989 62.8846 79.6277 65.5362 79.8712C66.8457 79.997 68.1277 79.9479 68.6053 79.7981C68.8311 79.7476 68.7443 79.6312 68.1489 80.0142C67.5378 80.3536 66.7937 81.5913 66.7477 82.1205C66.7521 82.0897 66.7565 82.0589 66.7607 82.0282C66.8188 81.5297 66.8289 81.1362 66.8129 80.7081C66.8096 80.627 66.8055 80.5427 66.7995 80.4599C66.7723 79.9626 66.6351 79.3367 66.5758 79.3201C66.5686 79.3263 66.5792 79.4029 66.6745 79.5797C65.8451 78.1535 65.4046 77.0622 65.0935 76.4658C64.9582 76.1816 64.847 76.0512 65.0643 76.2855C65.2401 76.4807 66.1097 77.2668 67.3944 77.4973C66.4219 77.1766 65.6428 77.2537 66.1448 76.9708C66.3136 76.8479 66.4595 76.5704 66.4181 76.3467C65.9468 76.4617 65.6155 76.3712 65.5499 76.0428C65.5187 75.8827 65.5529 75.6831 65.6451 75.458C65.503 75.3387 65.3977 75.2406 65.4117 75.1689C65.3729 75.1669 65.3782 75.1442 65.3619 75.1324C64.3828 75.9217 63.4216 76.7273 62.4851 77.5478C61.9612 78.0067 61.4132 78.3677 60.9434 78.5551C60.4759 78.7401 60.1189 78.7401 59.967 78.5275C59.8163 78.3144 59.8725 77.9141 60.1266 77.4168C60.3799 76.9205 60.8186 76.3638 61.3405 75.8794C62.2015 75.0802 63.0794 74.2977 63.9697 73.5317C64.2133 73.3265 64.4855 73.1797 64.8565 73.0704C65.676 72.8206 66.9624 72.8763 68.3149 73.1746C68.2906 73.171 68.2544 73.1541 68.2604 73.1571C68.2778 73.1354 68.6987 73.5831 69.0587 74.2853C69.4407 74.9864 69.8136 75.8689 70.3689 76.9048C70.4383 77.0327 70.5124 77.1652 70.5902 77.2984C71.0308 78.0101 71.2524 79.4962 71.1529 81.0017C71.1179 81.6097 71.0436 82.2299 70.9378 82.8517C70.8971 83.0822 70.849 83.1673 70.7921 83.2479C70.7335 83.3261 70.622 83.4346 70.372 83.5583C69.8998 83.7999 69.0127 83.9749 68.0753 84.0079C67.7178 84.0223 67.3682 84.0221 67.0026 84.0099C66.7078 83.9999 66.3996 83.9813 66.0858 83.9553C62.7411 83.6607 59.1172 82.6928 55.7919 81.4958C55.3598 81.3369 54.9451 81.1764 54.5722 81.018C52.8278 80.3723 51.5773 77.8645 50.9824 74.9463C50.5974 73.1409 50.3952 71.2088 50.2734 69.2429C50.2001 68.1559 50.5383 67.0961 51.298 66.011C52.6352 64.1095 54.9902 62.4803 57.4965 61.0762C57.9209 60.8352 58.4126 60.6443 58.9571 60.5059C61.7794 59.8075 65.455 60.4655 68.9283 61.3892C69.7951 61.6203 70.663 61.873 71.5406 62.1344C73.3061 62.6579 75.0434 63.3543 76.7674 64.1569C77.7798 64.5843 78.778 65.0452 79.7615 65.5229C81.193 66.2184 82.6264 66.9504 84.0597 67.6948C85.0966 68.1982 85.9899 69.1446 86.6843 70.3544C86.0064 69.0378 85.1355 68.0823 84.1465 67.5471C81.0296 65.8086 78.2535 64.3783 75.5337 63.277C75.0138 63.0667 74.4959 62.869 73.9782 62.6842C73.1886 62.4022 72.3983 62.15 71.6032 61.931C67.0836 60.7519 61.6267 59.039 57.4309 60.9571C57.346 61.0035 57.26 61.0507 57.1732 61.0987C52.8682 63.3916 49.6773 66.4824 49.963 69.2596C50.1802 75.2837 51.6091 80.4824 54.3667 81.4908C58.7657 83.3209 62.7116 84.2645 65.6327 84.6385C67.6933 84.8967 69.399 84.8258 70.4526 84.4786C71.5108 84.1034 71.7658 83.7478 71.993 83.0358C72.3694 81.4491 72.5463 80.1859 72.585 78.9896C72.6059 78.1975 72.5141 77.2516 72.1255 76.404C71.1057 74.3465 70.5298 71.5716 68.7657 71.0578C66.2442 70.351 63.6638 70.6223 62.4553 71.7906C62.4384 71.8052 62.4215 71.8197 62.4049 71.8342C61.2197 72.8598 59.9846 73.3942 59.6124 72.9844C59.2409 72.5757 59.896 71.3559 61.1103 70.3055C61.1204 70.2968 61.1306 70.288 61.1407 70.2792C62.9468 68.5623 66.3974 68.3062 69.1851 69.0882C72.811 70.3941 72.8503 73.6196 73.8903 75.3758C74.8431 77.34 74.7281 79.2299 74.5367 80.6844C74.4153 81.5037 74.2524 82.3461 73.9973 83.3856C73.6967 85.8131 70.2238 87.4203 65.1765 86.6004C62.0652 86.1693 58.1822 85.2424 53.5684 83.3277C49.3837 81.4944 48.2614 75.5098 47.9628 69.3671C47.6971 65.1306 51.8172 61.7172 56.2437 59.3237C56.318 59.2827 56.3914 59.2424 56.4641 59.2027C62.178 56.749 67.4556 58.8754 72.1946 60.0107C72.8797 60.2005 73.5617 60.4134 74.2416 60.6474C74.784 60.8341 75.3267 61.0342 75.8702 61.2477C75.8736 61.2491 75.8769 61.2505 75.8802 61.2519C78.8333 62.4143 81.8185 63.9482 85.1635 65.8168C87.6406 67.176 89.0776 70.1104 89.8552 73.2668C90.8025 77.0402 91.0016 81.1992 91.547 85.2769C92.8645 91.7298 88.79 97.9444 84.9657 101.858C81.1323 105.24 76.7001 104.557 73.5474 104.68C70.3034 104.601 67.8362 104.315 66.4394 104.188C66.2818 104.173 66.1265 104.157 65.9734 104.142C64.9722 104.043 63.9969 103.913 62.9822 103.756C59.562 103.209 55.6456 102.421 48.8305 100.438C46.8166 99.8325 44.3423 99.4159 41.4002 98.5084C39.7986 98.006 38.0185 97.2969 36.2578 96.2495C35.0654 95.5432 33.891 94.6735 32.8003 93.6488C28.5041 89.9448 26.1735 84.9993 24.4663 80.9515C24.3686 80.7156 24.2725 80.4819 24.1764 80.2469C22.7251 76.5959 22.2747 73.0653 22.1218 69.7097C22.0795 68.6722 22.0737 67.6303 22.1017 66.5943C22.1585 64.4983 22.3517 62.4163 22.6649 60.3954C22.7181 60.039 22.7708 59.6831 22.825 59.324C23.0947 57.5529 23.3518 55.6105 23.8114 53.4514C24.2611 51.3442 24.9344 49.0106 26.0484 46.6458C28.08 42.3103 30.868 38.0669 34.3591 33.6282C36.4894 30.9065 39.7308 29.259 42.4205 28.4432C45.0156 27.6388 47.1967 27.2855 48.7662 26.8205C54.4104 25.1649 59.8785 25.6902 64.3001 26.6113C69.2009 27.6851 72.8907 29.421 76.3184 30.9411C72.0906 28.9914 68.2878 27.3544 64.332 26.4513C62.7417 26.0888 61.204 25.8161 59.7056 25.6402C58.7792 25.5316 57.8749 25.4607 56.9883 25.4274C53.9371 25.3093 51.1251 25.6609 48.6259 26.3415C47.038 26.7546 44.9863 27.0683 42.554 27.799C39.6439 28.6409 36.1273 30.3894 33.8683 33.2233C29.894 38.0882 27.0712 42.1814 25.0371 46.1004C22.1242 51.9026 21.8128 56.2788 21.1514 60.0597C21.1429 60.111 21.1345 60.1625 21.1262 60.214C20.7523 62.5325 20.4926 65.1237 20.4782 67.9687C20.4872 71.8089 20.8207 76.1934 22.7001 80.7867C23.4876 82.6231 24.3477 84.5303 25.3742 86.4723C27.4137 90.3667 30.6348 94.8287 35.5402 97.4461C37.5395 98.5375 39.7324 99.3127 41.8692 99.8406C41.872 99.8414 41.8748 99.8423 41.8776 99.8431C43.2842 100.195 44.6667 100.456 45.9887 100.722C46.874 100.9 47.7332 101.08 48.5634 101.292C54.1448 102.71 59.8751 104.121 65.8888 104.774C67.7875 104.956 69.7042 105.111 71.6216 105.191C72.5601 105.23 73.6894 105.255 74.9943 105.22C77.6522 104.958 81.5142 105.486 85.2407 102.111C88.5561 98.4986 93.2277 92.571 91.9599 85.2244C91.671 82.8329 91.5395 80.2814 91.2603 77.6306C90.7984 74.2182 90.6855 70.356 87.7888 66.5284C87.2439 65.8711 86.5735 65.2544 85.7857 64.7581C85.3335 64.4684 84.8732 64.1759 84.4025 63.8807C81.2884 61.9652 77.7096 59.6964 72.8079 58.0191C70.0264 57.0994 66.8816 56.057 63.0688 55.687C60.7451 55.5045 57.9986 55.4867 55.2191 56.9436C51.4528 59.1501 45.3808 62.1826 45.3423 69.508C45.4383 71.4725 45.607 73.486 45.988 75.5518C46.6702 79.0047 47.9482 83.6396 52.5207 85.7384C53.9622 86.3648 55.3381 86.8461 56.753 87.3024C59.8555 88.2788 62.9567 89.062 66.3018 89.3172C67.982 89.4189 69.727 89.4387 71.6956 88.8357C73.6173 88.3747 76.0478 86.1961 76.3227 83.7913C76.7688 80.9652 77.1866 77.917 75.4073 74.492C74.9687 73.717 74.5294 72.5757 73.8426 71.3198C73.171 70.1516 72.0395 68.2342 69.4946 67.6348C66.939 67.0814 63.2811 66.6453 60.2075 69.2062C59.8603 69.5004 59.5149 69.7971 59.1717 70.0961C59.1696 70.098 59.1675 70.0999 59.1654 70.1017C57.9405 71.1679 56.6973 71.716 56.3558 71.2769C56.016 70.8384 56.7329 69.5573 57.9872 68.4699C58.2874 68.2094 58.5889 67.9507 58.892 67.6937C62.8054 64.4563 67.1592 65.0958 69.912 65.6744C73.4365 66.5165 74.8338 69.054 75.587 70.3329C76.3574 71.7466 76.8084 72.9069 77.139 73.4832C79.3404 77.7686 78.749 81.0672 78.2965 84.1358C77.9795 87.268 74.5933 90.2569 72.2753 90.7536C69.8746 91.4756 67.9462 91.4209 66.1135 91.312C62.4864 91.0258 59.2755 90.1988 56.0467 89.1791C54.6111 88.7127 53.2549 88.2397 51.7224 87.5753C46.1012 84.9584 44.7675 79.5797 44.0254 75.953C43.6165 73.747 43.4423 71.6468 43.3424 69.6155C43.4932 60.5957 50.432 57.5175 54.2522 55.189C57.7511 53.3699 60.9136 53.5013 63.4902 53.7135C67.4683 54.1359 70.6424 55.1926 73.3988 56.1006C78.8694 57.9728 82.6535 60.4442 85.9242 62.4607C86.2226 62.6492 86.5163 62.836 86.8064 63.0214C88.1466 63.8523 89.1785 64.9403 89.924 66.0096C92.8631 70.6623 92.8183 74.3344 93.2816 77.6917C93.5461 80.3032 93.6793 82.7687 93.9458 84.972C95.3954 93.0788 89.9624 99.9887 86.7187 103.471C82.0754 107.621 78.4282 106.834 75.6898 107.211C74.2758 107.269 73.0594 107.252 72.0323 107.218C69.8686 107.144 67.7266 106.972 65.6212 106.771C59.3682 106.083 53.6382 104.665 47.959 103.223C47.4197 103.088 46.8562 102.964 46.2677 102.842C45.0277 102.584 43.672 102.337 42.2366 102.008C42.2336 102.007 42.2306 102.007 42.2277 102.006C39.7307 101.445 36.9784 100.552 34.4992 99.1818C29.4451 96.4635 26.0192 91.9031 23.9118 88.0046C22.6514 85.698 21.6753 83.5271 20.7949 81.4833C19.0618 77.2348 18.6028 73.3217 18.4593 69.7315C18.3572 66.6198 18.5629 63.7085 18.9689 60.8909C19.031 60.4636 19.0977 60.0401 19.1688 59.62C19.8288 55.9218 20.1843 51.2598 23.2719 45.1484C25.438 40.992 28.3527 36.8117 32.3237 31.9492C34.8922 28.7282 38.8598 26.7855 41.9283 25.8967ZM66.1914 75.1656C66.6439 75.2294 67.2183 75.3551 67.8146 75.5239C67.1484 75.4225 66.6586 75.0291 66.5948 74.9746C66.5057 74.9002 66.6282 75.0644 66.7652 75.3349C67.0611 75.8917 67.4482 76.7898 67.9626 77.7755C67.4156 76.6414 67.0819 75.8002 66.8219 75.2925C66.7003 75.0444 66.6046 74.8965 66.6301 74.9063C66.6523 74.9072 66.8409 75.1082 67.2653 75.2923C67.4366 75.366 67.6363 75.4271 67.8281 75.4609C67.1937 75.2951 66.6221 75.1966 66.1914 75.1656ZM33.841 91.8721C34.2971 92.2778 34.775 92.6628 35.2717 93.0223C33.9466 91.9715 32.7763 90.7263 31.7611 89.3662C30.5127 87.6956 29.4892 85.8568 28.5977 83.961C29.9772 86.9901 31.6987 89.775 33.841 91.8721ZM43.052 30.3443C40.5155 31.1131 37.7181 32.5766 35.9071 34.9051C32.4652 39.2953 29.7865 43.4197 27.8451 47.6148C27.0828 49.2621 26.5341 50.9174 26.1277 52.5201C25.5799 54.6806 25.2734 56.7433 24.9708 58.7241C24.8631 59.4329 24.763 60.1352 24.6607 60.8381C24.6434 60.955 24.6265 61.0723 24.6099 61.1899C24.6356 61.0741 24.6615 60.9588 24.6877 60.844C25.676 56.3139 26.722 51.805 28.5653 48.4568C28.6275 48.3391 28.6907 48.2219 28.7546 48.1053C31.8575 42.6188 34.9094 39.0899 37.4012 36.1375C39.6454 33.5607 42.4299 32.7475 44.7058 32.1648C46.2909 31.7769 47.7883 31.5247 49.2457 31.1803C49.4893 31.1019 49.7318 31.0209 49.9714 30.9364C50.9947 30.5812 52.0765 30.2929 53.1844 30.0906C55.139 29.7266 57.2955 29.6281 59.3149 29.743C60.7439 29.8208 62.1741 29.9959 63.5772 30.2352C64.1813 30.3387 64.7764 30.463 65.3622 30.6024C67.3608 31.0802 69.2525 31.7207 71.0948 32.4122C72.827 33.0644 74.5121 33.7669 76.1288 34.4572C76.2215 34.4968 76.3146 34.5367 76.4077 34.5766C78.1134 35.3078 79.7593 36.032 81.2737 36.6795C82.5241 37.2142 83.6025 37.6629 84.5821 38.0469C84.8185 38.14 85.0463 38.2288 85.2669 38.3137C86.719 38.8731 88.2228 39.4785 89.6831 40.0955C91.1577 40.7192 92.61 41.3634 94.0522 42.0403C95.4938 42.7166 96.9179 43.4226 98.3245 44.1589C98.7817 44.3982 99.2517 44.6481 99.7011 44.8911C99.9047 45.0009 100.114 45.1148 100.317 45.2253C97.6678 43.6288 94.8256 42.0523 91.8684 40.5521C89.6672 39.4331 87.3684 38.3209 84.9631 37.2027C82.7399 36.1696 80.4368 35.0672 77.9832 33.9174C73.9225 32.0758 69.625 29.8624 63.9084 28.5749C59.6696 27.6926 54.5781 27.2054 49.329 28.7425C47.6109 29.2466 45.4634 29.5967 43.052 30.3443ZM123.983 85.915C123.915 84.5516 123.805 82.5303 123.413 79.8939C123.319 79.2721 123.207 78.6138 123.072 77.9263C123.074 77.9426 123.078 77.9592 123.08 77.9755C123.348 79.6924 123.501 81.2754 123.604 82.9627C123.786 85.9712 123.737 88.8337 123.74 91.611C123.74 91.8868 123.741 92.1674 123.743 92.4406C123.759 95.5295 122.979 98.2964 121.988 100.865C120.867 103.721 119.42 106.356 117.797 108.834C116.722 110.465 115.577 112.026 114.272 113.528C113.633 114.26 112.99 115.001 112.343 115.743C111.748 116.424 111.149 117.108 110.545 117.791C111.795 116.461 113.062 115.065 114.375 113.617C114.533 113.442 114.705 113.248 114.86 113.069C116.104 111.625 117.269 110.065 118.399 108.353C118.831 107.696 119.344 106.896 119.906 105.932C121.413 103.108 123.994 99.1353 124.127 92.4305C124.093 90.4812 124.095 88.3014 123.983 85.915ZM92.2132 132.793C91.553 133.02 90.8976 133.229 90.2484 133.423C88.4065 133.972 86.6343 134.412 84.9059 134.822C83.6927 135.109 82.4984 135.379 81.3267 135.643C81.2632 135.657 81.1996 135.671 81.1358 135.686C80.6308 135.799 80.1286 135.893 79.6263 135.97C78.6624 136.119 77.7021 136.204 76.756 136.235C78.2188 136.21 79.6956 136.053 81.1491 135.746C85.5465 134.793 89.9809 133.988 94.7437 132.163C94.8245 132.131 94.906 132.098 94.9872 132.065C94.0308 132.359 93.1065 132.593 92.2132 132.793Z" fill="#5390c7" fill-opacity="0.25"/>
</svg>
