<svg width="192" height="52" viewBox="0 0 192 52" fill="none" xmlns="http://www.w3.org/2000/svg">
<path d="M28.8651 21.2642C28.8651 27.8841 23.4758 33.2692 16.8502 33.2692H9.41406V18.5251H13.8193V28.8679H16.8502C21.0463 28.8679 24.4599 25.4564 24.4599 21.2642C24.4599 17.7043 21.9994 14.7084 18.6884 13.8852V9.39844C24.4441 10.2857 28.8651 15.2685 28.8651 21.2642Z" fill="#F0F0F0"/>
<path d="M38.1475 21.2731C38.1475 24.142 37.5835 26.9283 36.4719 29.555C35.3992 32.0892 33.8652 34.3637 31.9122 36.3146C29.9598 38.266 27.6835 39.7989 25.1473 40.8706C22.5185 41.9814 19.73 42.545 16.8588 42.545H0.148438V9.26756H4.5537V38.1432H16.8588C19.1369 38.1432 21.3486 37.6972 23.4315 36.8164C25.4421 35.9665 27.2477 34.7503 28.7975 33.2017C30.3473 31.6532 31.5644 29.849 32.415 27.8399C33.296 25.7581 33.7428 23.5488 33.7428 21.2725C33.7428 18.9962 33.2965 16.7863 32.415 14.705C31.5644 12.6954 30.3473 10.8918 28.7975 9.34324C27.2477 7.79409 25.4421 6.57852 23.4315 5.72855C22.3897 5.28843 21.3159 4.95659 20.2183 4.73479C19.12 4.51356 17.9979 4.40179 16.8588 4.40179H9.42272V0H16.8588C19.73 0 22.5185 0.563541 25.1473 1.67432C26.4151 2.2105 27.6182 2.86137 28.7485 3.62284C29.8788 4.38374 30.9363 5.25466 31.9122 6.23038C33.8652 8.18181 35.3992 10.4558 36.4719 12.99C37.5835 15.6179 38.1475 18.4041 38.1475 21.2731Z" fill="#F0F0F0"/>
<path d="M17.7247 9.27777V13.6796H13.8345V17.5667H9.42927V13.6796H5.53906V9.27777H9.42927V5.39062H13.8345V9.27777H17.7247Z" fill="#F0F0F0"/>
<path d="M168.461 30.3837C168.461 28.1544 168.899 26.1773 169.775 24.4522C170.677 22.7272 171.884 21.4003 173.397 20.4714C174.936 19.5426 176.648 19.0781 178.532 19.0781C180.178 19.0781 181.611 19.4099 182.832 20.0733C184.079 20.7368 185.074 21.5728 185.817 22.5813V19.4364H191.43V41.4902H185.817V38.2657C185.101 39.3007 184.106 40.1633 182.832 40.8533C181.584 41.5167 180.138 41.8485 178.493 41.8485C176.635 41.8485 174.936 41.3708 173.397 40.4154C171.884 39.46 170.677 38.1198 169.775 36.3947C168.899 34.6432 168.461 32.6395 168.461 30.3837ZM185.817 30.4633C185.817 29.1098 185.552 27.9554 185.021 27C184.49 26.018 183.774 25.275 182.872 24.7707C181.969 24.2399 181.001 23.9745 179.966 23.9745C178.931 23.9745 177.975 24.2267 177.099 24.7309C176.224 25.2351 175.507 25.9782 174.95 26.9602C174.419 27.9156 174.154 29.0567 174.154 30.3837C174.154 31.7106 174.419 32.8783 174.95 33.8868C175.507 34.8688 176.224 35.6251 177.099 36.1559C178.002 36.6867 178.957 36.9521 179.966 36.9521C181.001 36.9521 181.969 36.6999 182.872 36.1957C183.774 35.6649 184.49 34.9218 185.021 33.9664C185.552 32.9845 185.817 31.8168 185.817 30.4633Z" fill="#F0F0F0"/>
<path d="M148.518 22.6211C149.235 21.6126 150.217 20.7766 151.464 20.1131C152.738 19.4231 154.185 19.0781 155.803 19.0781C157.688 19.0781 159.386 19.5426 160.899 20.4714C162.438 21.4003 163.646 22.7272 164.521 24.4522C165.424 26.1507 165.875 28.1279 165.875 30.3837C165.875 32.6395 165.424 34.6432 164.521 36.3947C163.646 38.1198 162.438 39.46 160.899 40.4154C159.386 41.3708 157.688 41.8485 155.803 41.8485C154.185 41.8485 152.751 41.5167 151.504 40.8533C150.283 40.1898 149.288 39.3538 148.518 38.3453V51.9996H142.945V19.4364H148.518V22.6211ZM160.182 30.3837C160.182 29.0567 159.904 27.9156 159.346 26.9602C158.816 25.9782 158.099 25.2351 157.197 24.7309C156.321 24.2267 155.366 23.9745 154.33 23.9745C153.322 23.9745 152.367 24.2399 151.464 24.7707C150.589 25.275 149.872 26.018 149.315 27C148.784 27.9819 148.518 29.1364 148.518 30.4633C148.518 31.7902 148.784 32.9447 149.315 33.9266C149.872 34.9086 150.589 35.6649 151.464 36.1957C152.367 36.6999 153.322 36.9521 154.33 36.9521C155.366 36.9521 156.321 36.6867 157.197 36.1559C158.099 35.6251 158.816 34.8688 159.346 33.8868C159.904 32.9049 160.182 31.7372 160.182 30.3837Z" fill="#F0F0F0"/>
<path d="M128.248 41.7754C126.311 41.7754 124.559 41.4437 122.993 40.7802C121.454 40.1168 120.233 39.1614 119.331 37.914C118.428 36.6667 117.964 35.1938 117.938 33.4953H123.909C123.988 34.6365 124.386 35.5388 125.103 36.2023C125.846 36.8658 126.855 37.1975 128.128 37.1975C129.429 37.1975 130.451 36.8923 131.194 36.2819C131.937 35.645 132.308 34.8223 132.308 33.8138C132.308 32.9911 132.056 32.3143 131.552 31.7836C131.048 31.2528 130.411 30.8414 129.641 30.5495C128.898 30.231 127.863 29.886 126.536 29.5145C124.731 28.9837 123.259 28.4662 122.117 27.962C121.003 27.4312 120.034 26.6483 119.211 25.6133C118.415 24.5517 118.017 23.1452 118.017 21.3936C118.017 19.7482 118.428 18.3151 119.251 17.0943C120.074 15.8735 121.228 14.9446 122.714 14.3077C124.201 13.6442 125.899 13.3125 127.81 13.3125C130.676 13.3125 132.998 14.0158 134.776 15.4223C136.581 16.8024 137.576 18.7397 137.762 21.2344H131.632C131.578 20.279 131.167 19.4961 130.398 18.8857C129.654 18.2487 128.659 17.9303 127.412 17.9303C126.324 17.9303 125.448 18.2089 124.785 18.7662C124.148 19.3236 123.829 20.133 123.829 21.1945C123.829 21.9376 124.068 22.5613 124.546 23.0655C125.05 23.5432 125.66 23.9413 126.377 24.2598C127.12 24.5517 128.155 24.8967 129.482 25.2948C131.287 25.8256 132.759 26.3564 133.901 26.8871C135.042 27.4179 136.024 28.2141 136.846 29.2756C137.669 30.3372 138.081 31.7305 138.081 33.4555C138.081 34.9417 137.696 36.3217 136.926 37.5956C136.156 38.8694 135.029 39.8912 133.542 40.6608C132.056 41.4039 130.291 41.7754 128.248 41.7754Z" fill="#F0F0F0"/>
<path d="M113.159 19.4219V41.4757H107.546V38.6891C106.83 39.6445 105.888 40.4008 104.72 40.9582C103.579 41.4889 102.332 41.7543 100.978 41.7543C99.253 41.7543 97.7271 41.3961 96.4001 40.6795C95.0732 39.9364 94.0249 38.8616 93.2553 37.455C92.5122 36.0219 92.1406 34.3234 92.1406 32.3596V19.4219H97.7138V31.5634C97.7138 33.315 98.1517 34.6685 99.0275 35.6239C99.9032 36.5527 101.097 37.0171 102.61 37.0171C104.149 37.0171 105.357 36.5527 106.233 35.6239C107.109 34.6685 107.546 33.315 107.546 31.5634V19.4219H113.159Z" fill="#F0F0F0"/>
<path d="M66.9609 30.4633C66.9609 28.181 67.4254 26.1905 68.3542 24.4921C69.2831 22.767 70.5702 21.4401 72.2156 20.5112C73.861 19.5558 75.7453 19.0781 77.8684 19.0781C80.6019 19.0781 82.8577 19.7681 84.6358 21.1482C86.4405 22.5016 87.648 24.4124 88.2584 26.8806H82.2473C81.9289 25.9252 81.3848 25.1821 80.6152 24.6513C79.8721 24.094 78.9432 23.8153 77.8286 23.8153C76.2363 23.8153 74.9757 24.3992 74.0468 25.5669C73.118 26.7081 72.6535 28.3402 72.6535 30.4633C72.6535 32.5599 73.118 34.192 74.0468 35.3597C74.9757 36.5009 76.2363 37.0715 77.8286 37.0715C80.0844 37.0715 81.5573 36.063 82.2473 34.046H88.2584C87.648 36.4345 86.4405 38.3321 84.6358 39.7386C82.8312 41.1452 80.5754 41.8485 77.8684 41.8485C75.7453 41.8485 73.861 41.384 72.2156 40.4552C70.5702 39.4998 69.2831 38.1728 68.3542 36.4744C67.4254 34.7493 66.9609 32.7456 66.9609 30.4633Z" fill="#F0F0F0"/>
<path d="M52.7955 41.8485C50.6724 41.8485 48.7616 41.384 47.0631 40.4552C45.3646 39.4998 44.0244 38.1596 43.0425 36.4345C42.0871 34.7095 41.6094 32.7191 41.6094 30.4633C41.6094 28.2075 42.1003 26.2171 43.0823 24.4921C44.0908 22.767 45.4575 21.4401 47.1825 20.5112C48.9076 19.5558 50.8316 19.0781 52.9547 19.0781C55.0779 19.0781 57.0019 19.5558 58.7269 20.5112C60.452 21.4401 61.8055 22.767 62.7874 24.4921C63.7959 26.2171 64.3001 28.2075 64.3001 30.4633C64.3001 32.7191 63.7826 34.7095 62.7476 36.4345C61.7391 38.1596 60.3591 39.4998 58.6075 40.4552C56.8825 41.384 54.9452 41.8485 52.7955 41.8485ZM52.7955 36.9919C53.804 36.9919 54.7461 36.753 55.6219 36.2753C56.5242 35.7711 57.2408 35.028 57.7715 34.046C58.3023 33.0641 58.5677 31.8699 58.5677 30.4633C58.5677 28.3667 58.0104 26.7611 56.8958 25.6465C55.8077 24.5053 54.4675 23.9347 52.8751 23.9347C51.2828 23.9347 49.9426 24.5053 48.8545 25.6465C47.7929 26.7611 47.2622 28.3667 47.2622 30.4633C47.2622 32.5599 47.7797 34.1787 48.8147 35.3199C49.8762 36.4345 51.2032 36.9919 52.7955 36.9919Z" fill="#F0F0F0"/>
</svg>
