<svg width="235" height="49" viewBox="0 0 235 49" fill="none" xmlns="http://www.w3.org/2000/svg">
<g clip-path="url(#clip0_4233_2254)">
<path fill-rule="evenodd" clip-rule="evenodd" d="M145.547 8.82129C154.047 -1.17871 168.047 2.99129 173.547 5.82129V16.3213C158.747 11.9213 156.047 17.1513 156.547 20.3213C163.167 18.5113 173.367 19.3814 175.617 27.1914C176.137 28.9813 176.207 30.8813 176.117 32.7412C176.017 34.8512 175.717 36.9712 174.967 38.9512C171.517 47.941 159.227 48.9612 151.417 45.8213C151.267 45.7613 151.117 45.7009 150.967 45.6309C141.857 41.6909 139.917 30.5313 140.977 21.6514C141.497 17.3114 142.637 12.2413 145.547 8.82129ZM161.047 28.9912C160.377 28.4912 158.347 27.5912 155.547 27.9912C155.437 28.0119 155.547 32.3699 155.547 32.7109C155.547 34.5709 155.327 36.8609 157.987 36.8809C162.387 36.9105 164.867 31.8611 161.047 28.9912Z" fill="#F0F0F0"/>
<path fill-rule="evenodd" clip-rule="evenodd" d="M200.791 2.5C209.561 2.50021 216.73 9.68032 216.73 18.4502V31.4502C216.73 40.22 209.561 47.3894 200.791 47.3896H194.331C185.561 47.3896 178.391 40.2201 178.391 31.4502V18.4502C178.391 9.68019 185.561 2.5 194.331 2.5H200.791ZM196.03 12.5C194.72 12.5002 193.65 13.5801 193.65 14.8799V35.0098C193.65 36.3196 194.72 37.3895 196.03 37.3896H199.41C200.72 37.3896 201.791 36.3198 201.791 35.0098V14.8799C201.791 13.5799 200.72 12.5 199.41 12.5H196.03Z" fill="#F0F0F0"/>
<path d="M107.047 6.82129C115.167 3.49129 127.887 0.11125 135.157 7.03125C140.407 12.0213 137.797 20.0114 133.047 24.3213C138.507 26.3213 139.977 34.4014 137.937 39.1914C134.926 46.261 126.527 47.4208 119.717 47.3008C115.197 47.2208 110.767 45.911 107.047 43.3311V31.8311C109.037 33.0411 111.287 33.9013 113.497 34.6113C116.037 35.4213 118.917 36.2208 121.606 35.9209C122.326 35.8409 123.057 35.6207 123.637 35.1807C124.547 34.4907 125.087 33.1912 125.127 32.0713C125.247 28.6414 121.047 28.5514 118.617 28.6914C118.097 28.7214 117.577 28.7711 117.057 28.8311V20.3311C117.057 20.971 121.456 20.3613 121.887 20.2012C124.617 19.2012 124.736 14.911 122.316 13.501C120.666 12.5413 118.556 13.3107 117.017 14.1406C114.497 15.4906 112.037 16.9311 109.547 18.3311L107.047 6.83105V6.82129Z" fill="#F0F0F0"/>
<path d="M31.377 20.832L36.8271 3.17188H61.1572V13.9414H58.7168V37.0615H61.1572V46.7217H39.9365V37.6123H43.4873V19.7217L34.2666 46.7217H26.0469L16.5469 19.6719V37.1719H19.9873V46.7217H0.046875V37.1123H3.43652V13.7822H0.046875V3.17188H26.2666L31.377 20.832Z" fill="#F0F0F0"/>
<path fill-rule="evenodd" clip-rule="evenodd" d="M88.6104 3.15625C102.66 3.15649 104.61 17.2764 104.61 17.2764V32.5459C104.55 45.9959 88.46 46.7158 88.46 46.7158H63.5V37.1963H65.7197V13.7861H63.5V3.15625H88.6104ZM84.3398 12.4258C84.0689 12.4258 81.0498 12.4463 81.0498 12.4463V37.2666H85.5703C86.0702 37.2667 86.5103 37.3866 86.9502 37.0967C87.4201 36.7967 87.7099 36.3564 87.8799 35.8564V35.8467H87.8701C87.9901 35.4967 88.0498 35.1259 88.0498 34.7559C88.0798 33.796 88.0498 32.8358 88.0498 31.876V20.6758C88.0498 19.376 88.1396 18.1362 88.0996 16.7764C88.0596 15.4165 87.68 14.1265 87.04 12.9365C86.79 12.4765 86.5398 12.4062 86.0498 12.4062C85.4799 12.4162 84.9098 12.4258 84.3398 12.4258Z" fill="#F0F0F0"/>
<path fill-rule="evenodd" clip-rule="evenodd" d="M226.207 6.57812C226.897 6.57812 227.568 6.85776 228.058 7.34766C228.548 7.83766 228.827 8.50824 228.827 9.19824C228.827 9.88811 228.557 10.5579 228.058 11.0479C227.862 11.2432 227.637 11.4032 227.395 11.5273L228.697 13.3916C228.747 13.4616 228.787 13.5421 228.807 13.6221C228.827 13.702 228.827 13.7919 228.807 13.8818C228.797 13.9718 228.757 14.0521 228.717 14.1221C228.667 14.1919 228.607 14.2616 228.537 14.3115C228.467 14.3615 228.387 14.3921 228.297 14.4121C228.217 14.4321 228.127 14.432 228.037 14.4121C227.947 14.3921 227.867 14.3615 227.797 14.3115C227.727 14.2616 227.667 14.2017 227.617 14.1318L226.001 11.8184H224.247V13.7783C224.247 13.9483 224.178 14.1183 224.058 14.2383C223.938 14.3582 223.768 14.4277 223.598 14.4277C223.428 14.4277 223.258 14.3582 223.138 14.2383C223.018 14.1183 222.947 13.9483 222.947 13.7783V7.22852H222.938C222.938 7.05852 223.008 6.88855 223.128 6.76855C223.248 6.64855 223.418 6.57812 223.588 6.57812H226.207ZM224.247 10.498H226.207C226.244 10.498 226.281 10.4953 226.317 10.4922C226.626 10.466 226.914 10.3326 227.138 10.1182C227.378 9.8682 227.518 9.53817 227.518 9.19824C227.518 8.85834 227.378 8.51831 227.138 8.27832C226.888 8.02832 226.557 7.89844 226.207 7.89844H224.247V10.498Z" fill="#F0F0F0"/>
<path fill-rule="evenodd" clip-rule="evenodd" d="M225.547 2C230.247 2 234.047 5.81 234.047 10.5C234.047 15.19 230.247 19 225.547 19C220.847 19 217.047 15.19 217.047 10.5C217.047 5.81 220.847 2 225.547 2ZM225.547 3.30957C221.577 3.30957 218.356 6.53 218.356 10.5C218.356 14.47 221.577 17.6904 225.547 17.6904C229.517 17.6904 232.737 14.47 232.737 10.5C232.737 6.53 229.517 3.30957 225.547 3.30957Z" fill="#F0F0F0"/>
</g>
<defs>
<clipPath id="clip0_4233_2254">
<rect width="234" height="49" fill="white" transform="translate(0.0234375)"/>
</clipPath>
</defs>
</svg>
