<svg width="213" height="46" viewBox="0 0 213 46" fill="none" xmlns="http://www.w3.org/2000/svg">
<mask id="mask0_2376_1028" style="mask-type:alpha" maskUnits="userSpaceOnUse" x="0" y="0" width="213" height="46">
<path d="M153.265 35.4115H150.619L149.957 33.7577C148.965 35.0807 146.98 35.7423 144.665 35.7423H141.027C137.388 35.7423 135.734 34.4192 135.734 31.7731C135.734 31.1116 135.734 30.1193 136.065 29.127L139.373 16.8887C140.034 14.5734 141.027 12.9196 142.35 11.9273C143.673 10.935 145.657 10.2734 147.973 10.2734H152.934C154.588 10.2734 155.911 10.6042 156.903 11.2657C157.896 11.9273 158.226 12.9196 158.226 14.2426C158.226 14.9041 158.226 15.5657 157.896 16.558L157.565 18.5425H152.934L153.265 16.8887C153.265 16.558 153.265 16.2272 153.265 15.5657C153.265 14.9041 153.265 14.5734 152.603 14.5734C152.273 14.2426 151.611 14.2426 150.95 14.2426H147.973C146.98 14.2426 145.988 14.5734 145.657 14.9041C144.996 15.2349 144.665 16.2272 144.334 17.2195L141.027 28.4655C141.027 29.127 140.696 29.4578 140.696 30.1193C140.696 30.7808 140.696 31.1116 141.357 31.1116C141.688 31.4423 142.35 31.4423 143.011 31.4423H146.319C147.311 31.4423 148.303 31.1116 148.634 30.7808C149.296 30.45 149.626 29.4578 149.957 28.4655V27.8039L150.619 25.8194H145.988L146.98 21.8502H156.242L153.265 35.4115Z" fill="#D22108"/>
<path d="M167.154 10.5859C168.146 15.2166 168.808 19.5166 169.469 23.155C172.116 19.5166 175.092 15.2166 178.4 10.5859H184.023L170.793 27.7857L168.477 35.724H163.846L166.162 27.4549L162.523 10.5859H167.154Z" fill="#D22108"/>
<path d="M189.644 22.5117C189.644 19.5348 189.644 17.2195 189.644 15.8964L184.352 35.7423H179.391L186.337 10.6042H193.283C193.283 18.5425 193.613 24.4963 193.613 28.1347V30.7808C195.929 26.4809 199.898 19.5348 205.19 10.2734H212.467L205.521 35.4115H200.89L206.513 15.5657C203.867 20.5271 200.229 27.1424 195.267 35.4115H189.975C189.644 31.7731 189.644 27.4732 189.644 22.5117Z" fill="#D22108"/>
<path d="M87.4358 10.5948H54.3594L57.0055 0.671875H90.0819L87.4358 10.5948Z" fill="#D22108"/>
<path d="M64.9579 27.1339H82.8191L85.4652 17.2109H52.7196L44.7812 45.3259H59.9964L64.9579 27.1339Z" fill="#D22108"/>
<path fill-rule="evenodd" clip-rule="evenodd" d="M102.322 35.074C101.991 34.7432 101.661 34.7432 101.661 34.0817V33.7509V33.4202L107.614 11.9205C107.614 11.259 107.945 10.9282 108.607 10.5974C108.937 10.2667 109.599 10.2667 110.922 10.2667H127.46L130.106 0.34375H106.953C102.653 0.34375 99.676 0.674514 98.0222 1.66681C96.3683 2.6591 95.0453 4.31292 94.3838 6.95903L85.7839 37.7201C85.7839 38.0509 85.7839 38.7124 85.4531 39.0431C85.4531 39.3739 85.4531 40.0354 85.4531 40.3662C85.7839 41.6893 86.7762 43.0123 88.43 44.0046C90.0838 44.9969 92.0684 45.3277 94.053 45.3277H118.199L120.845 35.4047H103.314C103.314 35.4047 102.653 35.4047 102.322 35.074Z" fill="#D22108"/>
<path fill-rule="evenodd" clip-rule="evenodd" d="M11.3735 0.671875L1.11983 37.7175C0.789062 38.379 0.789062 38.7097 0.789062 39.3713C0.789062 40.0328 0.789062 40.3636 0.789062 40.6943C1.11983 42.0174 2.11212 43.3404 3.76594 44.3327C5.41976 45.325 7.40434 45.6558 9.38893 45.6558H26.5887C30.8886 45.6558 33.8655 45.325 35.5193 44.3327C37.1731 43.3404 38.4962 41.6866 39.1577 39.0405L49.7422 0.671875H34.527L25.5964 34.0791C25.5964 34.7406 25.2656 35.0713 24.6041 35.4021C23.9425 35.7329 23.6118 35.7329 22.2887 35.7329H19.6426C18.9811 35.7329 18.6503 35.7329 18.3196 35.4021C17.9888 35.0713 17.658 35.0713 17.658 34.4098V34.0791V33.7483L26.5887 0.671875H11.3735Z" fill="#D22108"/>
<path d="M204.2 40.3594H133.417L132.094 45.3208H202.877L204.2 40.3594Z" fill="#D22108"/>
</mask>
<g mask="url(#mask0_2376_1028)">
<rect x="-89.8516" y="-1.72656" width="311.762" height="49.4573" fill="#F0F0F0"/>
</g>
</svg>
